<svg width="120" height="23" viewBox="0 0 120 23" fill="none" xmlns="http://www.w3.org/2000/svg">
<g filter="url(#filter0_d_91_804)">
<path d="M4.92719 0.84H14.5472V3.72H8.04719V6.36H14.1872V9.24H8.04719V12.12H14.9072V15H4.92719V0.84ZM17.4048 0.84H22.8848C23.6048 0.84 24.2848 0.913333 24.9248 1.06C25.5782 1.19333 26.1448 1.42667 26.6248 1.76C27.1182 2.08 27.5048 2.52 27.7848 3.08C28.0782 3.62667 28.2248 4.31333 28.2248 5.14C28.2248 6.14 27.9648 6.99333 27.4448 7.7C26.9248 8.39333 26.1648 8.83333 25.1648 9.02L28.7648 15H25.0248L22.0648 9.34H20.5248V15H17.4048V0.84ZM20.5248 6.7H22.3648C22.6448 6.7 22.9382 6.69333 23.2448 6.68C23.5648 6.65333 23.8515 6.59333 24.1048 6.5C24.3582 6.39333 24.5648 6.23333 24.7248 6.02C24.8982 5.80667 24.9848 5.50667 24.9848 5.12C24.9848 4.76 24.9115 4.47333 24.7648 4.26C24.6182 4.04667 24.4315 3.88667 24.2048 3.78C23.9782 3.66 23.7182 3.58 23.4248 3.54C23.1315 3.5 22.8448 3.48 22.5648 3.48H20.5248V6.7ZM28.8936 0.84H32.2936L34.5536 9.92H34.5936L37.5536 0.84H40.4536L43.3936 10.16H43.4336L45.8136 0.84H48.9736L44.8336 15H42.0536L38.9336 5.2H38.8936L35.7736 15H33.0936L28.8936 0.84ZM50.4936 0.84H60.1136V3.72H53.6136V6.36H59.7536V9.24H53.6136V12.12H60.4736V15H50.4936V0.84ZM62.9313 0.84H66.0513V15H62.9313V0.84ZM71.6292 3.6H67.5892V0.84H78.7892V3.6H74.7492V15H71.6292V3.6ZM80.4936 0.84H90.1136V3.72H83.6136V6.36H89.7536V9.24H83.6136V12.12H90.4736V15H80.4936V0.84ZM92.9713 0.84H98.4513C99.1713 0.84 99.8513 0.913333 100.491 1.06C101.145 1.19333 101.711 1.42667 102.191 1.76C102.685 2.08 103.071 2.52 103.351 3.08C103.645 3.62667 103.791 4.31333 103.791 5.14C103.791 6.14 103.531 6.99333 103.011 7.7C102.491 8.39333 101.731 8.83333 100.731 9.02L104.331 15H100.591L97.6313 9.34H96.0913V15H92.9713V0.84ZM96.0913 6.7H97.9313C98.2113 6.7 98.5046 6.69333 98.8113 6.68C99.1313 6.65333 99.4179 6.59333 99.6713 6.5C99.9246 6.39333 100.131 6.23333 100.291 6.02C100.465 5.80667 100.551 5.50667 100.551 5.12C100.551 4.76 100.478 4.47333 100.331 4.26C100.185 4.04667 99.9979 3.88667 99.7713 3.78C99.5446 3.66 99.2846 3.58 98.9913 3.54C98.6979 3.5 98.4113 3.48 98.1313 3.48H96.0913V6.7ZM108.328 3.6H104.288V0.84H115.488V3.6H111.448V15H108.328V3.6Z" fill="white"/>
</g>
<defs>
<filter id="filter0_d_91_804" x="0.927185" y="0.839996" width="118.561" height="22.16" filterUnits="userSpaceOnUse" color-interpolation-filters="sRGB">
<feFlood flood-opacity="0" result="BackgroundImageFix"/>
<feColorMatrix in="SourceAlpha" type="matrix" values="0 0 0 0 0 0 0 0 0 0 0 0 0 0 0 0 0 0 127 0" result="hardAlpha"/>
<feOffset dy="4"/>
<feGaussianBlur stdDeviation="2"/>
<feComposite in2="hardAlpha" operator="out"/>
<feColorMatrix type="matrix" values="0 0 0 0 0 0 0 0 0 0 0 0 0 0 0 0 0 0 0.25 0"/>
<feBlend mode="normal" in2="BackgroundImageFix" result="effect1_dropShadow_91_804"/>
<feBlend mode="normal" in="SourceGraphic" in2="effect1_dropShadow_91_804" result="shape"/>
</filter>
</defs>
</svg>
