<svg width="256" height="256" viewBox="0 0 256 256" fill="none" xmlns="http://www.w3.org/2000/svg">
<g clip-path="url(#clip0_197_163)">
<rect width="256" height="256" fill="white"/>
<path d="M20.5 190.5L-2 220.5L-51 -23L270 -39L280.5 297.5L34 316.5L68.5 253.5L78.5 243.5L97 242L129.5 230.5L147 216L186 214.5L210 211L229.5 196L227.5 188H183.5L153 185.5V183L167 172V154.5L158 148L161 140.5L153 127.5L147.5 121L140 114L126 100.5L94.5 114L68.5 127.5L64 121L55 77L43 67H30.5L27 72L34 100.5L16.5 162.5L20.5 190.5Z" fill="#5AB0FF"/>
<path fill-rule="evenodd" clip-rule="evenodd" d="M58.6207 220.326C59.43 219.035 59.3697 218.772 58.0652 218.104C57.1172 217.585 56.149 216.978 55.1672 216.512C50.3996 214.197 46.0566 211.324 42.1183 207.806C38.6841 204.679 35.1624 201.572 33.6077 197.001C33.3998 196.496 32.9094 195.964 32.4116 195.801C31.6651 195.558 31.099 196.102 30.6406 196.714C29.1167 198.906 29.1983 203.078 30.9916 205.476C32.4895 207.389 34.0075 209.39 35.7952 210.96C39.2631 214.033 42.9871 216.818 46.61 219.764C46.7914 219.952 47.094 220.067 47.3092 220.202C49.1788 220.925 51.0823 221.593 52.9857 222.262C55.2054 222.905 57.3866 222.174 58.6207 220.326Z" fill="white"/>
<path fill-rule="evenodd" clip-rule="evenodd" d="M233.804 193.191C234.387 190.11 233.152 187.538 231.083 185.341C228.96 183.111 226.336 182.515 223.314 182.794C216.585 183.369 209.835 183.858 203.031 184.313C197.721 184.655 192.411 184.998 187.095 185.111C184.35 185.188 181.665 184.929 178.933 184.864C175.919 184.772 172.89 184.822 169.943 184.623C165.516 184.394 161.136 183.971 156.722 183.602C156.244 183.527 155.747 183.365 155.303 183.236C155.283 183.149 155.263 183.061 155.243 182.974C155.485 182.826 155.761 182.624 156.057 182.51C159.33 181.115 162.441 179.619 165.048 177.133C168.909 173.485 171.149 169.195 171.103 163.771C171.06 160.972 171.017 158.172 169.991 155.506C168.469 151.48 166.031 148.078 161.929 146.256C160.947 145.79 160.961 145.649 161.393 144.721C162.108 143.221 162.877 141.755 163.29 140.141C163.527 139.165 163.266 138.028 163.221 137.025C163.058 133.102 160.875 130.01 158.746 126.952C156.658 124.069 154.104 121.569 150.904 119.862C148.974 118.877 146.875 118.161 144.878 117.283C144.629 117.202 144.34 116.946 144.28 116.683C142.773 111.318 139.468 107.148 135.335 103.583C134.811 103.104 134.341 102.659 133.816 102.181L130.751 100.259C127.018 99.0421 123.155 98.8685 119.333 98.8698C116.568 98.8592 113.929 99.6024 111.444 100.817C108.575 102.165 105.727 103.601 102.932 105.071C98.1579 107.548 93.4373 110.058 88.7167 112.568C84.4135 114.89 80.1103 117.212 75.4315 118.699C72.9339 119.456 70.5503 120.509 67.9525 120.829C66.9698 120.962 66.3983 120.678 66.2113 119.662C65.5363 116.317 64.8614 112.971 64.274 109.606C63.5598 105.487 62.933 101.348 62.2188 97.2283C61.7582 94.6168 61.3313 91.9515 60.6081 89.4001C59.356 84.9437 58.1377 80.4334 56.5019 76.1111C54.5779 70.9337 50.6934 67.4493 45.8318 64.9257C42.4898 63.2051 38.9046 62.2311 35.1089 62.5487C31.3133 62.8664 27.7519 64.0053 24.7605 66.6255C24.6393 66.6993 24.5181 66.7732 24.4844 66.827L23.1692 68.9246C22.9114 70.4113 22.5862 72.0057 23.2436 73.4668C24.0688 75.2579 24.9614 76.9415 25.8202 78.6788C26.3235 79.6687 27.0356 80.5647 27.4714 81.6621C29.5704 86.7994 30.7943 92.1373 30.598 97.7087C30.4654 101.147 30.1039 104.592 29.4935 107.956C28.5443 113.055 27.0973 117.992 25.2602 122.834C22.869 129.278 20.8342 135.869 18.2143 142.319C15.4458 149.125 14.0091 156.316 13.5277 163.657C13.2947 166.658 13.1693 169.726 13.8852 172.647C14.768 176.498 15.8596 180.254 16.9511 184.011C17.3396 185.303 17.2504 186.521 16.4885 187.617C16.1513 188.155 15.7265 188.712 15.3355 189.217C12.6861 192.725 10.0165 196.147 7.31326 199.622C4.64372 203.043 1.88666 206.485 -0.782882 209.906C-3.70854 213.616 -6.72169 217.347 -9.64734 221.057C-10.9753 222.697 -12.2294 224.459 -13.7187 225.997C-15.3966 227.718 -16.5431 229.546 -17.078 231.834C-17.0579 231.921 -17.1254 232.029 -17.1053 232.116C-17.0451 232.379 -17.0186 232.695 -17.0459 232.978C-17.0459 232.978 -17.0459 232.978 -17.0259 233.065C-16.3693 235.125 -13.7458 235.721 -12.2565 234.182C-10.976 232.737 -9.74916 231.258 -8.60989 229.8C-5.76533 226.338 -3.00829 222.897 -0.163739 219.435C2.55959 216.048 5.37042 212.64 8.09374 209.252C10.5947 206.1 12.9543 202.934 15.3477 199.714C17.6873 196.46 20.0269 193.207 22.1714 189.906C23.4728 187.949 23.8527 185.79 22.8734 183.528C22.4777 182.605 22.2233 181.696 21.9151 180.754C20.3668 176.411 19.6598 171.922 19.3566 167.386C19.0415 161.794 20.3881 156.419 22.0037 151.213C23.7614 145.422 25.9832 139.847 27.9897 134.136C30.03 128.372 32.1442 122.73 33.4917 116.756C34.2023 113.83 35.1619 110.985 35.765 107.991C36.7407 103.208 37.3801 98.3642 36.519 93.4037C35.5576 88.0056 34.65 82.6412 31.7498 77.8258C30.7897 76.2498 29.8297 74.6739 29.0246 72.9703C28.1256 71.058 28.7936 69.7534 30.7798 68.9757C33.9309 67.6545 37.0401 67.356 40.3355 68.6728C42.723 69.6452 45.0904 70.53 46.9046 72.4167C50.9497 76.6012 53.1562 81.8059 54.3866 87.3726C55.2557 91.3642 55.9161 95.4497 56.6641 99.5151C57.2314 102.793 57.7988 106.071 58.3662 109.349C58.7867 111.785 59.1534 114.188 59.7489 116.584C60.2441 118.543 61.0355 120.388 61.6182 122.327C62.1608 124.091 62.9459 125.707 64.1484 127.135C65.7001 129.082 67.8314 130.343 69.9965 131.551C72.538 132.995 75.0459 134.492 77.1491 136.635C78.5804 138.057 79.9106 139.64 81.3081 141.116C82.3967 142.248 83.3793 142.114 84.1685 140.736C84.8366 139.431 84.9932 138.106 84.4434 136.712C83.6118 134.692 82.1604 133.183 80.689 131.586C78.7471 129.545 76.2794 128.222 73.9666 126.772C73.6977 126.604 73.4288 126.435 72.8909 126.098C76.0621 124.864 78.9571 123.832 81.7581 122.591C84.9092 121.27 88.0265 120.002 90.9761 118.405C94.8281 116.324 98.5461 113.86 102.432 111.726C105.294 110.148 108.304 108.813 111.273 107.304C115.617 105.156 120.161 103.884 125.085 104.874C127.318 105.375 129.518 105.93 131.218 107.52C133.624 109.778 135.754 112.237 137.331 115.099C139.002 118.17 138.735 121.823 136.504 123.946C134.186 126.09 131.815 128.199 129.369 130.188C125.563 133.271 121.629 136.199 117.877 139.316C112.662 143.69 107.522 148.184 102.307 152.558C101.411 153.27 100.3 153.847 99.1824 154.195C96.1261 155.126 93.4288 154.409 91.218 152.199C89.2087 150.265 88.3169 147.982 89.1351 145.124C90.3388 140.933 92.8133 137.464 95.6844 134.319C98.5016 131.14 101.554 128.184 104.734 125.382C109.033 121.633 113.586 118.194 117.959 114.567C118.612 114.003 119.299 113.384 119.738 112.685C120.648 111.233 120.152 109.873 118.619 109.211C117.745 108.813 116.963 109.223 116.27 109.612C111.643 112.331 107.762 115.892 103.774 119.385C101.624 121.26 99.5088 123.08 97.3933 124.901C96.6185 125.539 96.2621 125.39 95.7789 124.488C95.4233 123.741 95.014 122.959 94.6584 122.212C94.1952 121.397 92.8233 120.837 92.0357 121.017C91.0394 121.292 90.9036 122.106 90.7679 122.92C90.4491 124.743 90.6553 126.446 91.3529 128.082C92.1042 129.752 91.7187 131.084 90.6469 132.435C88.4021 135.298 86.7288 138.445 85.3245 141.76C84.5143 143.65 83.7917 145.52 83.957 147.646C84.2481 151.126 86.0141 153.807 88.5412 155.99C89.8047 157.082 91.3581 157.831 92.8103 158.742C92.5807 159.347 92.4522 159.791 92.2699 160.201C90.3525 164.694 90.6019 169.196 92.5941 173.667C92.7282 174.05 92.7948 174.542 92.7001 174.932C92.199 177.165 90.985 179.101 89.5558 180.903C87.702 183.262 85.4853 185.244 83.141 187.071C81.3491 188.495 79.3958 189.818 77.107 190.481C75.727 190.89 74.3734 191.614 73.1073 192.319C71.8749 192.97 71.6309 194.316 72.3493 195.44C73.4907 197.205 75.004 197.779 77.064 197.123C79.8915 196.198 82.5714 195.031 85.0433 193.359C89.9872 190.015 93.8489 185.767 96.7498 180.543C97.3367 179.487 97.3367 179.487 98.3586 180.128C99.8108 181.038 101.324 181.613 102.986 181.83C103.941 181.98 104.896 182.129 105.872 182.366C106.208 182.427 106.517 182.771 106.631 183.067C106.859 183.659 106.878 184.346 107.073 184.992C107.929 188.526 109.944 191.288 112.841 193.479C114.891 194.989 117.138 195.948 119.653 196.476C122.277 197.072 124.814 197.089 127.251 196.069C129.359 195.218 131.318 194.124 133.298 193.117C136.53 191.547 139.816 190.011 142.975 188.319C144.779 187.353 146.415 187.254 148.298 187.836C150.289 188.485 152.28 189.133 154.298 189.5C161.449 190.761 168.656 190.859 175.917 190.99C177.626 191.013 179.369 190.982 181.111 190.95C187.309 190.865 193.439 190.887 199.63 190.573C206.367 190.226 213.023 189.528 219.685 189.06C221.092 188.968 222.572 188.997 224.019 189.08C225.095 189.155 225.767 189.876 226.129 190.852C226.686 192.475 226.589 194.063 225.907 195.508C223.977 199.543 220.69 202.277 216.798 204.183C214.017 205.511 211.068 206.51 208.119 207.508C203.931 208.929 199.536 209.845 195.162 210.249C192.86 210.454 190.592 210.606 188.324 210.758C184.28 210.994 180.201 211.284 176.117 211.346C172.402 211.415 168.735 211.289 165 211.27C161.494 211.245 158.056 211.112 154.57 211.174C151.858 211.197 149.187 211.396 146.515 211.594C145.479 211.693 144.644 211.47 144.107 210.534C143.201 208.992 142.329 207.396 141.369 205.82C141.033 205.16 140.731 204.446 140.275 203.86C139.455 202.897 138.715 202.882 137.825 203.823C136.814 204.838 136.409 206.082 136.696 207.536C137.325 210.477 137.987 213.365 140.44 215.428C140.601 215.529 140.58 216.04 140.479 216.201C140.021 216.813 139.562 217.425 138.976 217.882C136.275 220.159 133.627 222.47 130.905 224.66C127.443 227.434 123.705 229.811 119.799 231.858C114.156 234.764 108.225 236.814 101.971 238.064C98.1348 238.805 94.2316 239.056 90.2216 238.64C86.6893 238.298 83.177 238.044 79.6311 237.844C77.1079 237.686 74.8527 238.295 73.0399 240.23C72.5614 240.755 72.0829 241.279 71.5707 241.857C68.0453 246.165 64.4862 250.527 61.0146 254.869C58.8709 257.572 56.8886 260.375 54.8325 263.057C52.2705 266.546 49.6885 269.947 47.1803 273.469C46.1285 274.908 46.2481 276.032 47.2218 277.467C47.4233 277.743 47.6046 277.931 47.8198 278.066C48.2437 278.107 48.6338 278.202 49.0641 278.472C49.1179 278.506 49.1717 278.539 49.2793 278.607C50.0194 278.621 50.7131 278.232 51.2928 277.546C53.3827 274.811 55.5062 272.021 57.5961 269.285C59.8209 266.334 62.0456 263.383 64.3579 260.412C67.6208 256.164 70.9575 252.037 74.2203 247.789C75.8855 245.611 77.94 244.127 80.7257 244.225C84.2516 244.337 87.8039 244.766 91.3298 244.879C93.9205 244.93 96.5648 245.014 99.1427 244.607C102.966 244.007 106.728 243.144 110.431 242.019C114.221 240.874 118.005 239.5 121.459 237.694C125.938 235.332 130.174 232.518 134.337 229.584C138.621 226.575 142.105 222.691 146.208 219.493C147.225 218.707 148.001 217.47 149.441 217.324C150.423 217.191 151.372 217.112 152.341 217.12C157.22 217.106 162.031 217.201 166.91 217.187C172.3 217.195 177.71 217.29 183.093 217.069C190.254 216.763 197.354 216.194 204.388 214.535C208.884 213.458 213.327 212.347 217.462 210.294C220.815 208.65 224.075 206.797 226.911 204.305C228.063 203.304 229.142 202.182 230.24 201.147L232.432 197.651C232.952 196.104 233.546 194.678 233.804 193.191ZM110.08 176.013C105.42 178.186 100.611 176.894 97.7233 172.537C95.8835 169.735 95.7328 166.868 96.6859 163.794C96.9902 162.711 97.1468 161.386 97.8477 160.626C98.5149 159.921 99.8877 159.882 100.898 159.466C104.486 158.045 107.598 155.95 110.414 153.37C114.194 149.97 117.813 146.469 121.633 143.245C123.937 141.243 126.53 139.497 128.962 137.65C132.701 134.674 136.533 131.907 139.836 128.433C141.136 127.075 142.638 125.994 143.327 124.178C143.543 123.714 143.672 123.27 143.881 122.577C144.682 122.854 145.496 122.99 146.175 123.341C148.959 124.637 151.217 126.652 153.219 128.956C155.02 130.984 156.335 133.308 157.112 135.893C158.271 139.542 157.21 142.548 154.771 145.364C152.466 147.965 149.778 150.101 146.855 152.015C142.53 154.848 138.26 157.716 133.842 160.34C129.06 163.187 124.662 166.498 120.189 169.688C117.05 172.066 113.729 174.255 110.08 176.013ZM147.225 180.345C143.905 181.935 140.532 183.491 137.179 185.135C134.155 186.611 131.273 188.101 128.323 189.699C124.505 191.725 120.642 192.151 116.708 190.059C114.51 188.905 113.032 187.08 112.053 184.817C110.999 182.434 111.276 182.232 113.565 180.97C116.34 179.413 118.967 177.613 121.627 175.76C124.443 173.779 127.198 171.535 130.068 169.588C133.94 166.996 137.907 164.612 141.746 162.074C146.623 158.838 151.425 155.48 156.282 152.156C156.524 152.008 156.625 151.847 156.814 151.665C157.602 150.886 158.323 150.813 159.324 151.366C164.481 154.374 166.796 159.647 165.65 165.896C165.385 167.154 164.926 168.365 164.683 169.112C162.357 172.224 159.951 174.387 156.82 175.796C153.616 177.083 150.457 178.775 147.225 180.345Z" fill="black"/>
<path fill-rule="evenodd" clip-rule="evenodd" d="M58.6204 220.325C57.4402 222.208 55.2051 222.905 52.9991 222.121C51.0957 221.452 49.226 220.729 47.3226 220.061C47.0737 219.98 46.8048 219.811 46.6234 219.622C43.0005 216.676 39.2765 213.892 35.8086 210.819C33.9671 209.215 32.5029 207.248 31.005 205.335C29.178 202.99 29.1301 198.764 30.654 196.573C31.1124 195.961 31.6784 195.417 32.425 195.66C32.9227 195.822 33.467 196.388 33.6211 196.86C35.2297 201.465 38.6975 204.538 42.1317 207.665C46.07 211.183 50.413 214.056 55.1807 216.371C56.1625 216.836 57.1306 217.443 58.0786 217.963C59.3695 218.772 59.4297 219.035 58.6204 220.325Z" fill="black"/>
<path d="M88.4172 66.2706C87.4947 65.7059 86.4193 65.4421 85.1907 65.4791C83.9832 65.4707 82.8985 65.6431 81.9366 65.9963C81.3728 66.2033 80.8167 66.4827 80.2683 66.8346C79.72 67.1865 79.2353 67.6091 78.8142 68.1024C78.3809 68.5626 78.0837 69.0858 77.9225 69.6719C77.7613 70.2581 77.8024 70.8828 78.046 71.5462C78.4357 72.6076 79.132 73.2741 80.1351 73.5457C81.1382 73.8173 82.3098 73.9329 83.65 73.8926C85.0233 73.84 86.4796 73.757 88.0188 73.6436C89.5581 73.5302 91.0586 73.6191 92.5206 73.9105C94.0158 74.1896 95.3866 74.7967 96.6332 75.7316C97.8799 76.6666 98.8807 78.1623 99.6357 80.2188C100.354 82.1757 100.616 84.0179 100.422 85.7452C100.229 87.4725 99.678 89.0485 98.7707 90.4731C97.8967 91.8856 96.7156 93.1284 95.2277 94.2016C93.7729 95.2627 92.1334 96.1281 90.3091 96.7979C88.0205 97.6381 85.7698 98.0692 83.5572 98.0911C81.3445 98.113 79.1062 97.6551 76.8422 96.7172L80.1364 88.6198C81.3221 89.3889 82.6216 89.8528 84.0348 90.0115C85.4691 90.1248 86.833 89.944 88.1266 89.469C88.7568 89.2377 89.3626 88.94 89.9441 88.5759C90.5466 88.1665 91.0418 87.7213 91.4297 87.2401C91.8508 86.7467 92.1254 86.2131 92.2534 85.6391C92.4146 85.053 92.3796 84.4448 92.1482 83.8146C91.7585 82.7532 91.0395 82.0762 89.9911 81.7836C88.9637 81.4457 87.7572 81.2864 86.3716 81.3057C84.9861 81.3251 83.501 81.381 81.9165 81.4735C80.3319 81.5659 78.7921 81.4725 77.2969 81.1934C75.8018 80.9142 74.4204 80.3299 73.1528 79.4402C71.9184 78.5384 70.9419 77.109 70.2235 75.1521C69.5294 73.2615 69.2853 71.4691 69.4914 69.7749C69.7307 68.0686 70.2874 66.5092 71.1614 65.0968C72.0687 63.6721 73.2497 62.4293 74.7045 61.3682C76.1471 60.274 77.7308 59.4103 79.4556 58.7771C81.4457 58.0464 83.473 57.6221 85.5374 57.504C87.6019 57.3859 89.6239 57.7163 91.6036 58.495L88.4172 66.2706Z" fill="black"/>
<path d="M138.561 79.5344C138.46 81.7581 138.031 83.79 137.275 85.6302C136.519 87.4703 135.44 89.0481 134.035 90.3635C132.667 91.6806 130.976 92.6823 128.964 93.3687C126.952 94.0552 124.658 94.3396 122.081 94.2222C119.469 94.1031 117.193 93.6103 115.252 92.7436C113.31 91.877 111.701 90.7248 110.422 89.2871C109.179 87.851 108.264 86.1823 107.679 84.281C107.094 82.3797 106.852 80.3172 106.953 78.0936L108.003 55.0625L116.262 55.439L115.227 78.1524C115.174 79.3172 115.301 80.4018 115.609 81.4062C115.952 82.4122 116.443 83.3011 117.079 84.0729C117.718 84.8094 118.486 85.4103 119.385 85.8757C120.32 86.3074 121.335 86.5482 122.429 86.5981C123.523 86.648 124.538 86.4997 125.473 86.1533C126.41 85.7715 127.23 85.243 127.933 84.5676C128.638 83.857 129.189 83.0155 129.587 82.0433C130.02 81.0727 130.263 80.005 130.316 78.8402L131.352 56.1268L139.611 56.5033L138.561 79.5344Z" fill="black"/>
<path d="M164.009 65.4239L175.121 74.774C176.581 76.0024 177.834 77.3114 178.882 78.7007C179.979 80.0858 180.73 81.5258 181.134 83.0207C181.589 84.5112 181.622 86.0631 181.234 87.6763C180.896 89.2853 180.022 90.9278 178.612 92.604C176.905 94.6317 174.922 95.9183 172.662 96.4639C170.425 96.9825 168.133 96.5779 165.787 95.2502L162.883 113.518L155.3 107.137L158.955 90.6098L155.833 87.9822L146.175 99.4586L139.849 94.1352L164.009 65.4239ZM160.337 82.6292L164.068 85.7687C164.636 86.2464 165.242 86.7334 165.886 87.2296C166.581 87.7215 167.264 88.089 167.937 88.332C168.633 88.5479 169.325 88.5761 170.013 88.4166C170.729 88.2798 171.416 87.8193 172.076 87.0353C172.69 86.3054 173.031 85.599 173.097 84.9162C173.164 84.2334 173.058 83.5905 172.781 82.9874C172.526 82.3574 172.135 81.7515 171.609 81.1699C171.082 80.5883 170.535 80.0587 169.967 79.5809L165.831 76.1002L160.337 82.6292Z" fill="black"/>
<path d="M197.322 97.9773L210.376 119.504L203.85 123.461L195.083 109.004L188.557 112.961L196.664 126.331L190.138 130.288L182.031 116.919L169.523 124.503L165.236 117.433L197.322 97.9773Z" fill="black"/>
<path d="M194.607 132.548C197.551 131.953 200.316 131.9 202.901 132.388C205.494 132.91 207.8 133.886 209.819 135.317C211.872 136.741 213.594 138.574 214.984 140.817C216.374 143.06 217.359 145.618 217.939 148.493C218.519 151.368 218.603 154.108 218.192 156.714C217.781 159.321 216.905 161.678 215.564 163.787C214.258 165.889 212.508 167.666 210.314 169.118C208.127 170.605 205.562 171.645 202.618 172.239C199.674 172.833 196.905 172.869 194.313 172.347C191.727 171.86 189.408 170.904 187.354 169.48C185.335 168.049 183.631 166.213 182.241 163.97C180.851 161.727 179.866 159.168 179.286 156.294C178.706 153.419 178.621 150.679 179.033 148.072C179.444 145.466 180.302 143.112 181.608 141.01C182.949 138.901 184.713 137.104 186.9 135.617C189.094 134.165 191.663 133.142 194.607 132.548ZM196.306 140.964C194.574 141.313 193.033 141.895 191.683 142.708C190.375 143.549 189.286 144.579 188.415 145.801C187.578 147.015 187.005 148.374 186.696 149.878C186.394 151.417 186.418 153.052 186.767 154.784C187.117 156.516 187.726 158.015 188.594 159.281C189.469 160.583 190.528 161.631 191.77 162.425C193.046 163.213 194.447 163.723 195.972 163.956C197.538 164.217 199.187 164.173 200.919 163.823C202.616 163.481 204.136 162.885 205.479 162.038C206.829 161.225 207.922 160.211 208.758 158.997C209.629 157.776 210.216 156.396 210.518 154.857C210.827 153.353 210.807 151.735 210.458 150.003C210.108 148.271 209.496 146.755 208.62 145.453C207.752 144.187 206.679 143.16 205.403 142.372C204.161 141.577 202.757 141.05 201.191 140.789C199.631 140.563 198.003 140.621 196.306 140.964Z" fill="black"/>
</g>
<defs>
<clipPath id="clip0_197_163">
<rect width="256" height="256" fill="white"/>
</clipPath>
</defs>
</svg>
