<svg width="117" height="26" viewBox="0 0 117 26" fill="none" xmlns="http://www.w3.org/2000/svg">
<g filter="url(#filter0_d_168_2806)">
<path d="M105.334 8.93126H108.603C109.033 8.93126 109.438 8.97501 109.82 9.06251C110.21 9.14205 110.548 9.28125 110.834 9.48011C111.129 9.67102 111.359 9.93351 111.526 10.2676C111.701 10.5937 111.789 11.0034 111.789 11.4966C111.789 12.0931 111.634 12.6022 111.324 13.0238C111.013 13.4374 110.56 13.6999 109.963 13.8113L112.111 17.3788H109.88L108.114 14.0022H107.195V17.3788H105.334V8.93126ZM107.195 12.4272H108.293C108.46 12.4272 108.635 12.4232 108.818 12.4153C109.009 12.3994 109.18 12.3636 109.331 12.3079C109.482 12.2443 109.606 12.1488 109.701 12.0215C109.804 11.8943 109.856 11.7153 109.856 11.4846C109.856 11.2699 109.812 11.0988 109.725 10.9716C109.637 10.8443 109.526 10.7488 109.391 10.6852C109.256 10.6136 109.1 10.5659 108.925 10.542C108.75 10.5182 108.579 10.5062 108.412 10.5062H107.195V12.4272Z" fill="white"/>
</g>
<g filter="url(#filter1_d_168_2806)">
<path d="M103.613 14.1215C103.613 14.6226 103.538 15.084 103.387 15.5056C103.235 15.9272 103.009 16.2931 102.706 16.6033C102.412 16.9135 102.042 17.1561 101.597 17.3311C101.151 17.5061 100.638 17.5936 100.058 17.5936C99.469 17.5936 98.952 17.5061 98.5066 17.3311C98.0611 17.1561 97.6873 16.9135 97.385 16.6033C97.0907 16.2931 96.8679 15.9272 96.7168 15.5056C96.5657 15.084 96.4901 14.6226 96.4901 14.1215V8.93126H98.3514V14.0499C98.3514 14.3124 98.3912 14.555 98.4708 14.7778C98.5583 15.0005 98.6776 15.1954 98.8287 15.3624C98.9798 15.5215 99.1588 15.6488 99.3656 15.7442C99.5804 15.8317 99.8111 15.8755 100.058 15.8755C100.304 15.8755 100.531 15.8317 100.738 15.7442C100.945 15.6488 101.124 15.5215 101.275 15.3624C101.426 15.1954 101.541 15.0005 101.621 14.7778C101.708 14.555 101.752 14.3124 101.752 14.0499V8.93126H103.613V14.1215Z" fill="white"/>
</g>
<g filter="url(#filter2_d_168_2806)">
<path d="M91.2733 10.5778H88.8631V8.93126H95.5448V10.5778H93.1346V17.3788H91.2733V10.5778Z" fill="white"/>
</g>
<g filter="url(#filter3_d_168_2806)">
<path d="M84.6702 8.93126H86.2094L89.8844 17.3788H87.7844L87.0566 15.5891H83.7754L83.0714 17.3788H81.0192L84.6702 8.93126ZM85.3861 11.3892L84.36 14.0141H86.4242L85.3861 11.3892Z" fill="white"/>
</g>
<g filter="url(#filter4_d_168_2806)">
<path d="M74.1533 8.93126H77.4226C77.8521 8.93126 78.2578 8.97501 78.6396 9.06251C79.0294 9.14205 79.3674 9.28125 79.6538 9.48011C79.9481 9.67102 80.1788 9.93351 80.3458 10.2676C80.5208 10.5937 80.6083 11.0034 80.6083 11.4966C80.6083 12.0931 80.4532 12.6022 80.143 13.0238C79.8328 13.4374 79.3794 13.6999 78.7828 13.8113L80.9305 17.3788H78.6993L76.9334 14.0022H76.0147V17.3788H74.1533V8.93126ZM76.0147 12.4272H77.1124C77.2794 12.4272 77.4544 12.4232 77.6374 12.4153C77.8283 12.3994 77.9993 12.3636 78.1504 12.3079C78.3015 12.2443 78.4248 12.1488 78.5203 12.0215C78.6237 11.8943 78.6754 11.7153 78.6754 11.4846C78.6754 11.2699 78.6317 11.0988 78.5442 10.9716C78.4567 10.8443 78.3453 10.7488 78.2101 10.6852C78.0748 10.6136 77.9197 10.5659 77.7447 10.542C77.5697 10.5182 77.3987 10.5062 77.2317 10.5062H76.0147V12.4272Z" fill="white"/>
</g>
<g filter="url(#filter5_d_168_2806)">
<path d="M66.7093 8.93126H72.4484V10.6494H68.5706V12.2244H72.2336V13.9425H68.5706V15.6607H72.6632V17.3788H66.7093V8.93126Z" fill="white"/>
</g>
<g filter="url(#filter6_d_168_2806)">
<path d="M59.1223 8.93126H62.2603C62.6978 8.93126 63.1114 8.97103 63.5012 9.05058C63.8909 9.13012 64.229 9.26932 64.5153 9.46818C64.8097 9.65909 65.0403 9.92158 65.2074 10.2557C65.3824 10.5818 65.4699 10.9954 65.4699 11.4966C65.4699 11.9897 65.3903 12.4034 65.2312 12.7374C65.0722 13.0715 64.8534 13.338 64.575 13.5369C64.2966 13.7357 63.9665 13.8789 63.5847 13.9664C63.2029 14.0459 62.7892 14.0857 62.3438 14.0857H60.9836V17.3788H59.1223V8.93126ZM60.9836 12.5107H62.2245C62.3915 12.5107 62.5506 12.4948 62.7017 12.463C62.8608 12.4312 63 12.3795 63.1193 12.3079C63.2466 12.2284 63.346 12.125 63.4176 11.9977C63.4972 11.8625 63.537 11.6954 63.537 11.4966C63.537 11.2818 63.4853 11.1108 63.3818 10.9835C63.2864 10.8483 63.1591 10.7449 63 10.6733C62.8489 10.6017 62.6779 10.5579 62.487 10.542C62.2961 10.5182 62.1131 10.5062 61.9381 10.5062H60.9836V12.5107Z" fill="white"/>
</g>
<g filter="url(#filter7_d_168_2806)">
<path d="M47.8548 8.93126H50.6707L52.6155 14.4437H52.6394L54.5962 8.93126H57.4001V17.3788H55.5388V10.9H55.5149L53.2956 17.3788H51.8758L49.74 10.9H49.7161V17.3788H47.8548V8.93126Z" fill="white"/>
</g>
<g filter="url(#filter8_d_168_2806)">
<path d="M40.4108 8.93126H46.1499V10.6494H42.2722V12.2244H45.9352V13.9425H42.2722V15.6607H46.3647V17.3788H40.4108V8.93126Z" fill="white"/>
</g>
<g filter="url(#filter9_d_168_2806)">
<path d="M35.1224 10.5778H32.7122V8.93126H39.394V10.5778H36.9838V17.3788H35.1224V10.5778Z" fill="white"/>
</g>
<g filter="url(#filter10_d_168_2806)">
<path d="M28.2711 10.5778H25.8609V8.93126H32.5426V10.5778H30.1324V17.3788H28.2711V10.5778Z" fill="white"/>
</g>
<g filter="url(#filter11_d_168_2806)">
<path d="M19.6354 8.93126H25.3029V10.6494H21.4967V12.3676H25.0165V14.0857H21.4967V17.3788H19.6354V8.93126Z" fill="white"/>
</g>
<g filter="url(#filter12_d_168_2806)">
<path d="M17.8431 14.1215C17.8431 14.6226 17.7676 15.084 17.6164 15.5056C17.4653 15.9272 17.2386 16.2931 16.9363 16.6033C16.642 16.9135 16.2721 17.1561 15.8267 17.3311C15.3813 17.5061 14.8682 17.5936 14.2875 17.5936C13.6989 17.5936 13.1819 17.5061 12.7364 17.3311C12.291 17.1561 11.9171 16.9135 11.6148 16.6033C11.3205 16.2931 11.0978 15.9272 10.9467 15.5056C10.7955 15.084 10.72 14.6226 10.72 14.1215V8.93126H12.5813V14.0499C12.5813 14.3124 12.6211 14.555 12.7006 14.7778C12.7881 15.0005 12.9074 15.1954 13.0586 15.3624C13.2097 15.5215 13.3887 15.6488 13.5955 15.7442C13.8103 15.8317 14.0409 15.8755 14.2875 15.8755C14.5341 15.8755 14.7608 15.8317 14.9676 15.7442C15.1744 15.6488 15.3534 15.5215 15.5045 15.3624C15.6557 15.1954 15.771 15.0005 15.8506 14.7778C15.9381 14.555 15.9818 14.3124 15.9818 14.0499V8.93126H17.8431V14.1215Z" fill="white"/>
</g>
<g filter="url(#filter13_d_168_2806)">
<path d="M4.38303 8.93126H6.24436V15.6607H9.6926V17.3788H4.38303V8.93126Z" fill="white"/>
</g>
<path fill-rule="evenodd" clip-rule="evenodd" d="M113.328 2.94938L4.00114 3.00556L4 0.785728L113.327 0.72954L113.328 2.94938Z" fill="white"/>
<defs>
<filter id="filter0_d_168_2806" x="101.334" y="8.93126" width="14.7772" height="16.4476" filterUnits="userSpaceOnUse" color-interpolation-filters="sRGB">
<feFlood flood-opacity="0" result="BackgroundImageFix"/>
<feColorMatrix in="SourceAlpha" type="matrix" values="0 0 0 0 0 0 0 0 0 0 0 0 0 0 0 0 0 0 127 0" result="hardAlpha"/>
<feOffset dy="4"/>
<feGaussianBlur stdDeviation="2"/>
<feComposite in2="hardAlpha" operator="out"/>
<feColorMatrix type="matrix" values="0 0 0 0 0 0 0 0 0 0 0 0 0 0 0 0 0 0 0.25 0"/>
<feBlend mode="normal" in2="BackgroundImageFix" result="effect1_dropShadow_168_2806"/>
<feBlend mode="normal" in="SourceGraphic" in2="effect1_dropShadow_168_2806" result="shape"/>
</filter>
<filter id="filter1_d_168_2806" x="92.4901" y="8.93126" width="15.1232" height="16.6624" filterUnits="userSpaceOnUse" color-interpolation-filters="sRGB">
<feFlood flood-opacity="0" result="BackgroundImageFix"/>
<feColorMatrix in="SourceAlpha" type="matrix" values="0 0 0 0 0 0 0 0 0 0 0 0 0 0 0 0 0 0 127 0" result="hardAlpha"/>
<feOffset dy="4"/>
<feGaussianBlur stdDeviation="2"/>
<feComposite in2="hardAlpha" operator="out"/>
<feColorMatrix type="matrix" values="0 0 0 0 0 0 0 0 0 0 0 0 0 0 0 0 0 0 0.25 0"/>
<feBlend mode="normal" in2="BackgroundImageFix" result="effect1_dropShadow_168_2806"/>
<feBlend mode="normal" in="SourceGraphic" in2="effect1_dropShadow_168_2806" result="shape"/>
</filter>
<filter id="filter2_d_168_2806" x="84.8631" y="8.93126" width="14.6817" height="16.4476" filterUnits="userSpaceOnUse" color-interpolation-filters="sRGB">
<feFlood flood-opacity="0" result="BackgroundImageFix"/>
<feColorMatrix in="SourceAlpha" type="matrix" values="0 0 0 0 0 0 0 0 0 0 0 0 0 0 0 0 0 0 127 0" result="hardAlpha"/>
<feOffset dy="4"/>
<feGaussianBlur stdDeviation="2"/>
<feComposite in2="hardAlpha" operator="out"/>
<feColorMatrix type="matrix" values="0 0 0 0 0 0 0 0 0 0 0 0 0 0 0 0 0 0 0.25 0"/>
<feBlend mode="normal" in2="BackgroundImageFix" result="effect1_dropShadow_168_2806"/>
<feBlend mode="normal" in="SourceGraphic" in2="effect1_dropShadow_168_2806" result="shape"/>
</filter>
<filter id="filter3_d_168_2806" x="77.0192" y="8.93126" width="16.8652" height="16.4476" filterUnits="userSpaceOnUse" color-interpolation-filters="sRGB">
<feFlood flood-opacity="0" result="BackgroundImageFix"/>
<feColorMatrix in="SourceAlpha" type="matrix" values="0 0 0 0 0 0 0 0 0 0 0 0 0 0 0 0 0 0 127 0" result="hardAlpha"/>
<feOffset dy="4"/>
<feGaussianBlur stdDeviation="2"/>
<feComposite in2="hardAlpha" operator="out"/>
<feColorMatrix type="matrix" values="0 0 0 0 0 0 0 0 0 0 0 0 0 0 0 0 0 0 0.25 0"/>
<feBlend mode="normal" in2="BackgroundImageFix" result="effect1_dropShadow_168_2806"/>
<feBlend mode="normal" in="SourceGraphic" in2="effect1_dropShadow_168_2806" result="shape"/>
</filter>
<filter id="filter4_d_168_2806" x="70.1533" y="8.93126" width="14.7772" height="16.4476" filterUnits="userSpaceOnUse" color-interpolation-filters="sRGB">
<feFlood flood-opacity="0" result="BackgroundImageFix"/>
<feColorMatrix in="SourceAlpha" type="matrix" values="0 0 0 0 0 0 0 0 0 0 0 0 0 0 0 0 0 0 127 0" result="hardAlpha"/>
<feOffset dy="4"/>
<feGaussianBlur stdDeviation="2"/>
<feComposite in2="hardAlpha" operator="out"/>
<feColorMatrix type="matrix" values="0 0 0 0 0 0 0 0 0 0 0 0 0 0 0 0 0 0 0.25 0"/>
<feBlend mode="normal" in2="BackgroundImageFix" result="effect1_dropShadow_168_2806"/>
<feBlend mode="normal" in="SourceGraphic" in2="effect1_dropShadow_168_2806" result="shape"/>
</filter>
<filter id="filter5_d_168_2806" x="62.7093" y="8.93126" width="13.9539" height="16.4476" filterUnits="userSpaceOnUse" color-interpolation-filters="sRGB">
<feFlood flood-opacity="0" result="BackgroundImageFix"/>
<feColorMatrix in="SourceAlpha" type="matrix" values="0 0 0 0 0 0 0 0 0 0 0 0 0 0 0 0 0 0 127 0" result="hardAlpha"/>
<feOffset dy="4"/>
<feGaussianBlur stdDeviation="2"/>
<feComposite in2="hardAlpha" operator="out"/>
<feColorMatrix type="matrix" values="0 0 0 0 0 0 0 0 0 0 0 0 0 0 0 0 0 0 0.25 0"/>
<feBlend mode="normal" in2="BackgroundImageFix" result="effect1_dropShadow_168_2806"/>
<feBlend mode="normal" in="SourceGraphic" in2="effect1_dropShadow_168_2806" result="shape"/>
</filter>
<filter id="filter6_d_168_2806" x="55.1223" y="8.93126" width="14.3476" height="16.4476" filterUnits="userSpaceOnUse" color-interpolation-filters="sRGB">
<feFlood flood-opacity="0" result="BackgroundImageFix"/>
<feColorMatrix in="SourceAlpha" type="matrix" values="0 0 0 0 0 0 0 0 0 0 0 0 0 0 0 0 0 0 127 0" result="hardAlpha"/>
<feOffset dy="4"/>
<feGaussianBlur stdDeviation="2"/>
<feComposite in2="hardAlpha" operator="out"/>
<feColorMatrix type="matrix" values="0 0 0 0 0 0 0 0 0 0 0 0 0 0 0 0 0 0 0.25 0"/>
<feBlend mode="normal" in2="BackgroundImageFix" result="effect1_dropShadow_168_2806"/>
<feBlend mode="normal" in="SourceGraphic" in2="effect1_dropShadow_168_2806" result="shape"/>
</filter>
<filter id="filter7_d_168_2806" x="43.8548" y="8.93126" width="17.5453" height="16.4476" filterUnits="userSpaceOnUse" color-interpolation-filters="sRGB">
<feFlood flood-opacity="0" result="BackgroundImageFix"/>
<feColorMatrix in="SourceAlpha" type="matrix" values="0 0 0 0 0 0 0 0 0 0 0 0 0 0 0 0 0 0 127 0" result="hardAlpha"/>
<feOffset dy="4"/>
<feGaussianBlur stdDeviation="2"/>
<feComposite in2="hardAlpha" operator="out"/>
<feColorMatrix type="matrix" values="0 0 0 0 0 0 0 0 0 0 0 0 0 0 0 0 0 0 0.25 0"/>
<feBlend mode="normal" in2="BackgroundImageFix" result="effect1_dropShadow_168_2806"/>
<feBlend mode="normal" in="SourceGraphic" in2="effect1_dropShadow_168_2806" result="shape"/>
</filter>
<filter id="filter8_d_168_2806" x="36.4108" y="8.93126" width="13.9539" height="16.4476" filterUnits="userSpaceOnUse" color-interpolation-filters="sRGB">
<feFlood flood-opacity="0" result="BackgroundImageFix"/>
<feColorMatrix in="SourceAlpha" type="matrix" values="0 0 0 0 0 0 0 0 0 0 0 0 0 0 0 0 0 0 127 0" result="hardAlpha"/>
<feOffset dy="4"/>
<feGaussianBlur stdDeviation="2"/>
<feComposite in2="hardAlpha" operator="out"/>
<feColorMatrix type="matrix" values="0 0 0 0 0 0 0 0 0 0 0 0 0 0 0 0 0 0 0.25 0"/>
<feBlend mode="normal" in2="BackgroundImageFix" result="effect1_dropShadow_168_2806"/>
<feBlend mode="normal" in="SourceGraphic" in2="effect1_dropShadow_168_2806" result="shape"/>
</filter>
<filter id="filter9_d_168_2806" x="28.7122" y="8.93126" width="14.6817" height="16.4476" filterUnits="userSpaceOnUse" color-interpolation-filters="sRGB">
<feFlood flood-opacity="0" result="BackgroundImageFix"/>
<feColorMatrix in="SourceAlpha" type="matrix" values="0 0 0 0 0 0 0 0 0 0 0 0 0 0 0 0 0 0 127 0" result="hardAlpha"/>
<feOffset dy="4"/>
<feGaussianBlur stdDeviation="2"/>
<feComposite in2="hardAlpha" operator="out"/>
<feColorMatrix type="matrix" values="0 0 0 0 0 0 0 0 0 0 0 0 0 0 0 0 0 0 0.25 0"/>
<feBlend mode="normal" in2="BackgroundImageFix" result="effect1_dropShadow_168_2806"/>
<feBlend mode="normal" in="SourceGraphic" in2="effect1_dropShadow_168_2806" result="shape"/>
</filter>
<filter id="filter10_d_168_2806" x="21.8609" y="8.93126" width="14.6817" height="16.4476" filterUnits="userSpaceOnUse" color-interpolation-filters="sRGB">
<feFlood flood-opacity="0" result="BackgroundImageFix"/>
<feColorMatrix in="SourceAlpha" type="matrix" values="0 0 0 0 0 0 0 0 0 0 0 0 0 0 0 0 0 0 127 0" result="hardAlpha"/>
<feOffset dy="4"/>
<feGaussianBlur stdDeviation="2"/>
<feComposite in2="hardAlpha" operator="out"/>
<feColorMatrix type="matrix" values="0 0 0 0 0 0 0 0 0 0 0 0 0 0 0 0 0 0 0.25 0"/>
<feBlend mode="normal" in2="BackgroundImageFix" result="effect1_dropShadow_168_2806"/>
<feBlend mode="normal" in="SourceGraphic" in2="effect1_dropShadow_168_2806" result="shape"/>
</filter>
<filter id="filter11_d_168_2806" x="15.6354" y="8.93126" width="13.6675" height="16.4476" filterUnits="userSpaceOnUse" color-interpolation-filters="sRGB">
<feFlood flood-opacity="0" result="BackgroundImageFix"/>
<feColorMatrix in="SourceAlpha" type="matrix" values="0 0 0 0 0 0 0 0 0 0 0 0 0 0 0 0 0 0 127 0" result="hardAlpha"/>
<feOffset dy="4"/>
<feGaussianBlur stdDeviation="2"/>
<feComposite in2="hardAlpha" operator="out"/>
<feColorMatrix type="matrix" values="0 0 0 0 0 0 0 0 0 0 0 0 0 0 0 0 0 0 0.25 0"/>
<feBlend mode="normal" in2="BackgroundImageFix" result="effect1_dropShadow_168_2806"/>
<feBlend mode="normal" in="SourceGraphic" in2="effect1_dropShadow_168_2806" result="shape"/>
</filter>
<filter id="filter12_d_168_2806" x="6.71997" y="8.93126" width="15.1232" height="16.6624" filterUnits="userSpaceOnUse" color-interpolation-filters="sRGB">
<feFlood flood-opacity="0" result="BackgroundImageFix"/>
<feColorMatrix in="SourceAlpha" type="matrix" values="0 0 0 0 0 0 0 0 0 0 0 0 0 0 0 0 0 0 127 0" result="hardAlpha"/>
<feOffset dy="4"/>
<feGaussianBlur stdDeviation="2"/>
<feComposite in2="hardAlpha" operator="out"/>
<feColorMatrix type="matrix" values="0 0 0 0 0 0 0 0 0 0 0 0 0 0 0 0 0 0 0.25 0"/>
<feBlend mode="normal" in2="BackgroundImageFix" result="effect1_dropShadow_168_2806"/>
<feBlend mode="normal" in="SourceGraphic" in2="effect1_dropShadow_168_2806" result="shape"/>
</filter>
<filter id="filter13_d_168_2806" x="0.383026" y="8.93126" width="13.3096" height="16.4476" filterUnits="userSpaceOnUse" color-interpolation-filters="sRGB">
<feFlood flood-opacity="0" result="BackgroundImageFix"/>
<feColorMatrix in="SourceAlpha" type="matrix" values="0 0 0 0 0 0 0 0 0 0 0 0 0 0 0 0 0 0 127 0" result="hardAlpha"/>
<feOffset dy="4"/>
<feGaussianBlur stdDeviation="2"/>
<feComposite in2="hardAlpha" operator="out"/>
<feColorMatrix type="matrix" values="0 0 0 0 0 0 0 0 0 0 0 0 0 0 0 0 0 0 0.25 0"/>
<feBlend mode="normal" in2="BackgroundImageFix" result="effect1_dropShadow_168_2806"/>
<feBlend mode="normal" in="SourceGraphic" in2="effect1_dropShadow_168_2806" result="shape"/>
</filter>
</defs>
</svg>
