<svg width="272" height="88" viewBox="0 0 272 88" fill="none" xmlns="http://www.w3.org/2000/svg">
<g filter="url(#filter0_d_196_3)">
<path d="M4.31426 19.3C4.31426 16.4667 4.78092 13.9 5.71426 11.6C6.68092 9.3 8.01426 7.35 9.71426 5.75C11.4143 4.11667 13.4309 2.86667 15.7643 2C18.0976 1.13333 20.6476 0.699999 23.4143 0.699999C26.1809 0.699999 28.7309 1.13333 31.0643 2C33.3976 2.86667 35.4143 4.11667 37.1143 5.75C38.8143 7.35 40.1309 9.3 41.0643 11.6C42.0309 13.9 42.5143 16.4667 42.5143 19.3C42.5143 22.1333 42.0309 24.7 41.0643 27C40.1309 29.3 38.8143 31.2667 37.1143 32.9C35.4143 34.5 33.3976 35.7333 31.0643 36.6C28.7309 37.4667 26.1809 37.9 23.4143 37.9C20.6476 37.9 18.0976 37.4667 15.7643 36.6C13.4309 35.7333 11.4143 34.5 9.71426 32.9C8.01426 31.2667 6.68092 29.3 5.71426 27C4.78092 24.7 4.31426 22.1333 4.31426 19.3ZM12.4143 19.3C12.4143 20.9667 12.6643 22.5 13.1643 23.9C13.6976 25.2667 14.4476 26.4667 15.4143 27.5C16.3809 28.5 17.5309 29.2833 18.8643 29.85C20.2309 30.4167 21.7476 30.7 23.4143 30.7C25.0809 30.7 26.5809 30.4167 27.9143 29.85C29.2809 29.2833 30.4476 28.5 31.4143 27.5C32.3809 26.4667 33.1143 25.2667 33.6143 23.9C34.1476 22.5 34.4143 20.9667 34.4143 19.3C34.4143 17.6667 34.1476 16.15 33.6143 14.75C33.1143 13.35 32.3809 12.15 31.4143 11.15C30.4476 10.1167 29.2809 9.31667 27.9143 8.75C26.5809 8.18333 25.0809 7.9 23.4143 7.9C21.7476 7.9 20.2309 8.18333 18.8643 8.75C17.5309 9.31667 16.3809 10.1167 15.4143 11.15C14.4476 12.15 13.6976 13.35 13.1643 14.75C12.6643 16.15 12.4143 17.6667 12.4143 19.3ZM47.8158 1.6H61.0158C62.5492 1.6 64.0825 1.71667 65.6158 1.95C67.1825 2.15 68.5825 2.58333 69.8158 3.25C71.0492 3.88333 72.0492 4.78333 72.8158 5.95C73.5825 7.11666 73.9658 8.66667 73.9658 10.6C73.9658 12.6 73.3992 14.2667 72.2658 15.6C71.1658 16.9 69.6992 17.8333 67.8658 18.4V18.5C69.0325 18.6667 70.0825 19 71.0158 19.5C71.9825 19.9667 72.7992 20.5833 73.4658 21.35C74.1658 22.0833 74.6992 22.95 75.0658 23.95C75.4325 24.95 75.6158 26.0167 75.6158 27.15C75.6158 29.0167 75.2158 30.5833 74.4158 31.85C73.6158 33.0833 72.5825 34.0833 71.3158 34.85C70.0492 35.6167 68.6158 36.1667 67.0158 36.5C65.4492 36.8333 63.8825 37 62.3158 37H47.8158V1.6ZM55.6158 15.75H61.2658C61.8658 15.75 62.4492 15.6833 63.0158 15.55C63.6158 15.4167 64.1492 15.2 64.6158 14.9C65.0825 14.6 65.4492 14.2 65.7158 13.7C66.0158 13.2 66.1658 12.6 66.1658 11.9C66.1658 11.1667 65.9992 10.5667 65.6658 10.1C65.3658 9.6 64.9658 9.21666 64.4658 8.95C63.9658 8.68333 63.3992 8.5 62.7658 8.4C62.1325 8.26667 61.5158 8.2 60.9158 8.2H55.6158V15.75ZM55.6158 30.4H62.6158C63.2158 30.4 63.8158 30.3333 64.4158 30.2C65.0492 30.0667 65.6158 29.8333 66.1158 29.5C66.6158 29.1667 67.0158 28.7333 67.3158 28.2C67.6492 27.6667 67.8158 27.0167 67.8158 26.25C67.8158 25.4167 67.5992 24.75 67.1658 24.25C66.7658 23.7167 66.2492 23.3167 65.6158 23.05C64.9825 22.7833 64.2992 22.6 63.5658 22.5C62.8325 22.4 62.1492 22.35 61.5158 22.35H55.6158V30.4ZM97.7377 10.25C97.1044 9.45 96.2377 8.86667 95.1377 8.5C94.071 8.1 93.0544 7.9 92.0877 7.9C91.521 7.9 90.9377 7.96667 90.3377 8.1C89.7377 8.23333 89.171 8.45 88.6377 8.75C88.1044 9.01667 87.671 9.38333 87.3377 9.85C87.0044 10.3167 86.8377 10.8833 86.8377 11.55C86.8377 12.6167 87.2377 13.4333 88.0377 14C88.8377 14.5667 89.8377 15.05 91.0377 15.45C92.271 15.85 93.5877 16.25 94.9877 16.65C96.3877 17.05 97.6877 17.6167 98.8877 18.35C100.121 19.0833 101.138 20.0667 101.938 21.3C102.738 22.5333 103.138 24.1833 103.138 26.25C103.138 28.2167 102.771 29.9333 102.038 31.4C101.304 32.8667 100.304 34.0833 99.0377 35.05C97.8044 36.0167 96.3544 36.7333 94.6877 37.2C93.0544 37.6667 91.321 37.9 89.4877 37.9C87.1877 37.9 85.0544 37.55 83.0877 36.85C81.121 36.15 79.2877 35.0167 77.5877 33.45L83.1377 27.35C83.9377 28.4167 84.9377 29.25 86.1377 29.85C87.371 30.4167 88.6377 30.7 89.9377 30.7C90.571 30.7 91.2044 30.6333 91.8377 30.5C92.5044 30.3333 93.0877 30.1 93.5877 29.8C94.121 29.5 94.5377 29.1167 94.8377 28.65C95.171 28.1833 95.3377 27.6333 95.3377 27C95.3377 25.9333 94.921 25.1 94.0877 24.5C93.2877 23.8667 92.271 23.3333 91.0377 22.9C89.8044 22.4667 88.471 22.0333 87.0377 21.6C85.6044 21.1667 84.271 20.5833 83.0377 19.85C81.8044 19.1167 80.771 18.15 79.9377 16.95C79.1377 15.75 78.7377 14.1667 78.7377 12.2C78.7377 10.3 79.1044 8.63333 79.8377 7.2C80.6044 5.76666 81.6044 4.56666 82.8377 3.6C84.1044 2.63333 85.5544 1.91667 87.1877 1.45C88.821 0.949999 90.5044 0.699999 92.2377 0.699999C94.2377 0.699999 96.171 0.983332 98.0377 1.55C99.9044 2.11666 101.588 3.06667 103.088 4.4L97.7377 10.25ZM109.249 1.6H133.299V8.8H117.049V15.4H132.399V22.6H117.049V29.8H134.199V37H109.249V1.6ZM140.443 1.6H154.143C155.943 1.6 157.643 1.78333 159.243 2.15C160.876 2.48333 162.293 3.06666 163.493 3.9C164.726 4.7 165.693 5.8 166.393 7.2C167.126 8.56667 167.493 10.2833 167.493 12.35C167.493 14.85 166.843 16.9833 165.543 18.75C164.243 20.4833 162.343 21.5833 159.843 22.05L168.843 37H159.493L152.093 22.85H148.243V37H140.443V1.6ZM148.243 16.25H152.843C153.543 16.25 154.276 16.2333 155.043 16.2C155.843 16.1333 156.559 15.9833 157.193 15.75C157.826 15.4833 158.343 15.0833 158.743 14.55C159.176 14.0167 159.393 13.2667 159.393 12.3C159.393 11.4 159.209 10.6833 158.843 10.15C158.476 9.61667 158.009 9.21666 157.443 8.95C156.876 8.65 156.226 8.45 155.493 8.35C154.759 8.25 154.043 8.2 153.343 8.2H148.243V16.25ZM169.365 1.6H178.265L187.015 24.8H187.115L196.015 1.6H204.365L189.765 37H183.515L169.365 1.6ZM208.37 1.6H232.42V8.8H216.17V15.4H231.52V22.6H216.17V29.8H233.32V37H208.37V1.6ZM239.564 1.6H253.264C255.064 1.6 256.764 1.78333 258.364 2.15C259.997 2.48333 261.414 3.06666 262.614 3.9C263.847 4.7 264.814 5.8 265.514 7.2C266.247 8.56667 266.614 10.2833 266.614 12.35C266.614 14.85 265.964 16.9833 264.664 18.75C263.364 20.4833 261.464 21.5833 258.964 22.05L267.964 37H258.614L251.214 22.85H247.364V37H239.564V1.6ZM247.364 16.25H251.964C252.664 16.25 253.397 16.2333 254.164 16.2C254.964 16.1333 255.681 15.9833 256.314 15.75C256.947 15.4833 257.464 15.0833 257.864 14.55C258.297 14.0167 258.514 13.2667 258.514 12.3C258.514 11.4 258.331 10.6833 257.964 10.15C257.597 9.61667 257.131 9.21666 256.564 8.95C255.997 8.65 255.347 8.45 254.614 8.35C253.881 8.25 253.164 8.2 252.464 8.2H247.364V16.25ZM4.31101 54.592H8.73101L11.669 66.396H11.721L15.569 54.592H19.339L23.161 66.708H23.213L26.307 54.592H30.415L25.033 73H21.419L17.363 60.26H17.311L13.255 73H9.77101L4.31101 54.592ZM41.0462 71.414H40.9942C40.5608 72.09 39.9802 72.5753 39.2522 72.87C38.5415 73.1647 37.7875 73.312 36.9902 73.312C36.4008 73.312 35.8288 73.2253 35.2742 73.052C34.7368 72.896 34.2602 72.6533 33.8442 72.324C33.4282 71.9947 33.0988 71.5873 32.8562 71.102C32.6135 70.6167 32.4922 70.0533 32.4922 69.412C32.4922 68.684 32.6222 68.0687 32.8822 67.566C33.1595 67.0633 33.5235 66.6473 33.9742 66.318C34.4422 65.9887 34.9708 65.7373 35.5602 65.564C36.1495 65.3733 36.7562 65.2347 37.3802 65.148C38.0215 65.0613 38.6542 65.0093 39.2782 64.992C39.9195 64.9747 40.5088 64.966 41.0462 64.966C41.0462 64.2727 40.7948 63.7267 40.2922 63.328C39.8068 62.912 39.2262 62.704 38.5502 62.704C37.9088 62.704 37.3195 62.8427 36.7822 63.12C36.2622 63.38 35.7942 63.744 35.3782 64.212L33.2982 62.08C34.0262 61.404 34.8755 60.9013 35.8462 60.572C36.8168 60.2253 37.8222 60.052 38.8622 60.052C40.0062 60.052 40.9422 60.1993 41.6702 60.494C42.4155 60.7713 43.0048 61.1873 43.4382 61.742C43.8888 62.2967 44.2008 62.9813 44.3742 63.796C44.5475 64.5933 44.6342 65.5207 44.6342 66.578V73H41.0462V71.414ZM40.0842 67.462C39.7895 67.462 39.4168 67.4793 38.9662 67.514C38.5328 67.5313 38.1082 67.6007 37.6922 67.722C37.2935 67.8433 36.9468 68.0253 36.6522 68.268C36.3748 68.5107 36.2362 68.8487 36.2362 69.282C36.2362 69.75 36.4355 70.0967 36.8342 70.322C37.2328 70.5473 37.6488 70.66 38.0822 70.66C38.4635 70.66 38.8275 70.608 39.1742 70.504C39.5382 70.4 39.8588 70.2527 40.1362 70.062C40.4135 69.8713 40.6302 69.6287 40.7862 69.334C40.9595 69.0393 41.0462 68.6927 41.0462 68.294V67.462H40.0842ZM56.571 64.082C55.999 63.3713 55.245 63.016 54.309 63.016C53.9797 63.016 53.659 63.094 53.347 63.25C53.035 63.406 52.879 63.6747 52.879 64.056C52.879 64.368 53.035 64.602 53.347 64.758C53.6763 64.8967 54.0837 65.0267 54.569 65.148C55.0717 65.252 55.6003 65.3733 56.155 65.512C56.727 65.6333 57.2557 65.8327 57.741 66.11C58.2437 66.3873 58.651 66.7687 58.963 67.254C59.2923 67.722 59.457 68.3547 59.457 69.152C59.457 69.9667 59.275 70.6427 58.911 71.18C58.5643 71.7 58.1137 72.1247 57.559 72.454C57.0043 72.766 56.3803 72.9827 55.687 73.104C54.9937 73.2427 54.309 73.312 53.633 73.312C52.749 73.312 51.8563 73.1907 50.955 72.948C50.0537 72.688 49.291 72.2373 48.667 71.596L51.033 68.97C51.397 69.4207 51.7957 69.7673 52.229 70.01C52.6797 70.2353 53.1997 70.348 53.789 70.348C54.2397 70.348 54.647 70.2873 55.011 70.166C55.375 70.0273 55.557 69.7847 55.557 69.438C55.557 69.1087 55.3923 68.866 55.063 68.71C54.751 68.5367 54.3437 68.398 53.841 68.294C53.3557 68.1727 52.827 68.0513 52.255 67.93C51.7003 67.7913 51.1717 67.592 50.669 67.332C50.1837 67.072 49.7763 66.708 49.447 66.24C49.135 65.7547 48.979 65.1133 48.979 64.316C48.979 63.5707 49.1263 62.9293 49.421 62.392C49.733 61.8547 50.1317 61.4127 50.617 61.066C51.1197 60.7193 51.6917 60.468 52.333 60.312C52.9743 60.1387 53.6243 60.052 54.283 60.052C55.115 60.052 55.9557 60.1733 56.805 60.416C57.6543 60.6587 58.3737 61.092 58.963 61.716L56.571 64.082ZM70.9462 64.082C70.3742 63.3713 69.6202 63.016 68.6842 63.016C68.3548 63.016 68.0342 63.094 67.7222 63.25C67.4102 63.406 67.2542 63.6747 67.2542 64.056C67.2542 64.368 67.4102 64.602 67.7222 64.758C68.0515 64.8967 68.4588 65.0267 68.9442 65.148C69.4468 65.252 69.9755 65.3733 70.5302 65.512C71.1022 65.6333 71.6308 65.8327 72.1162 66.11C72.6188 66.3873 73.0262 66.7687 73.3382 67.254C73.6675 67.722 73.8322 68.3547 73.8322 69.152C73.8322 69.9667 73.6502 70.6427 73.2862 71.18C72.9395 71.7 72.4888 72.1247 71.9342 72.454C71.3795 72.766 70.7555 72.9827 70.0622 73.104C69.3688 73.2427 68.6842 73.312 68.0082 73.312C67.1242 73.312 66.2315 73.1907 65.3302 72.948C64.4288 72.688 63.6662 72.2373 63.0422 71.596L65.4082 68.97C65.7722 69.4207 66.1708 69.7673 66.6042 70.01C67.0548 70.2353 67.5748 70.348 68.1642 70.348C68.6148 70.348 69.0222 70.2873 69.3862 70.166C69.7502 70.0273 69.9322 69.7847 69.9322 69.438C69.9322 69.1087 69.7675 68.866 69.4382 68.71C69.1262 68.5367 68.7188 68.398 68.2162 68.294C67.7308 68.1727 67.2022 68.0513 66.6302 67.93C66.0755 67.7913 65.5468 67.592 65.0442 67.332C64.5588 67.072 64.1515 66.708 63.8222 66.24C63.5102 65.7547 63.3542 65.1133 63.3542 64.316C63.3542 63.5707 63.5015 62.9293 63.7962 62.392C64.1082 61.8547 64.5068 61.4127 64.9922 61.066C65.4948 60.7193 66.0668 60.468 66.7082 60.312C67.3495 60.1387 67.9995 60.052 68.6582 60.052C69.4902 60.052 70.3308 60.1733 71.1802 60.416C72.0295 60.6587 72.7488 61.092 73.3382 61.716L70.9462 64.082ZM90.1313 70.816C89.5073 71.6133 88.7187 72.2287 87.7653 72.662C86.812 73.0953 85.824 73.312 84.8013 73.312C83.8307 73.312 82.912 73.156 82.0453 72.844C81.196 72.532 80.4507 72.09 79.8093 71.518C79.1853 70.9287 78.6913 70.2267 78.3273 69.412C77.9633 68.5973 77.7813 67.6873 77.7813 66.682C77.7813 65.6767 77.9633 64.7667 78.3273 63.952C78.6913 63.1373 79.1853 62.444 79.8093 61.872C80.4507 61.2827 81.196 60.832 82.0453 60.52C82.912 60.208 83.8307 60.052 84.8013 60.052C85.7027 60.052 86.5173 60.208 87.2453 60.52C87.9907 60.832 88.6147 61.2827 89.1173 61.872C89.6373 62.444 90.036 63.1373 90.3133 63.952C90.5907 64.7667 90.7293 65.6767 90.7293 66.682V67.904H81.6813C81.8373 68.6493 82.1753 69.2473 82.6953 69.698C83.2153 70.1313 83.8567 70.348 84.6193 70.348C85.2607 70.348 85.798 70.2093 86.2313 69.932C86.682 69.6373 87.072 69.2647 87.4013 68.814L90.1313 70.816ZM86.8293 65.252C86.8467 64.5933 86.63 64.03 86.1793 63.562C85.7287 63.094 85.148 62.86 84.4373 62.86C84.004 62.86 83.6227 62.9293 83.2933 63.068C82.964 63.2067 82.678 63.3887 82.4353 63.614C82.21 63.822 82.028 64.0733 81.8893 64.368C81.768 64.6453 81.6987 64.94 81.6813 65.252H86.8293ZM95.441 60.364H99.341V62.392H99.393C99.809 61.612 100.303 61.0313 100.875 60.65C101.447 60.2513 102.166 60.052 103.033 60.052C103.258 60.052 103.484 60.0607 103.709 60.078C103.934 60.0953 104.142 60.13 104.333 60.182V63.744C104.056 63.6573 103.778 63.5967 103.501 63.562C103.241 63.51 102.964 63.484 102.669 63.484C101.924 63.484 101.334 63.588 100.901 63.796C100.468 64.004 100.13 64.2987 99.887 64.68C99.6617 65.044 99.5143 65.486 99.445 66.006C99.3757 66.526 99.341 67.098 99.341 67.722V73H95.441V60.364ZM118.041 53.344H121.941V73H118.041V53.344ZM109.721 63.484H107.147V60.364H109.721V58.128C109.721 57.4347 109.782 56.7847 109.903 56.178C110.024 55.554 110.258 55.008 110.605 54.54C110.952 54.072 111.446 53.708 112.087 53.448C112.746 53.1707 113.604 53.032 114.661 53.032C115.06 53.032 115.45 53.0493 115.831 53.084C116.212 53.1187 116.585 53.1793 116.949 53.266L116.767 56.568C116.542 56.4813 116.334 56.4207 116.143 56.386C115.952 56.334 115.736 56.308 115.493 56.308C114.869 56.308 114.401 56.4467 114.089 56.724C113.777 56.984 113.621 57.53 113.621 58.362V60.364H116.507V63.484H113.621V73H109.721V63.484ZM139.254 73H135.51V71.284H135.458C135.319 71.5267 135.137 71.7693 134.912 72.012C134.704 72.2547 134.444 72.4713 134.132 72.662C133.82 72.8527 133.465 73.0087 133.066 73.13C132.667 73.2513 132.234 73.312 131.766 73.312C130.778 73.312 129.972 73.1647 129.348 72.87C128.741 72.558 128.265 72.1333 127.918 71.596C127.589 71.0587 127.363 70.426 127.242 69.698C127.138 68.97 127.086 68.1813 127.086 67.332V60.364H130.986V66.552C130.986 66.916 130.995 67.2973 131.012 67.696C131.047 68.0773 131.125 68.4327 131.246 68.762C131.385 69.0913 131.584 69.36 131.844 69.568C132.121 69.776 132.511 69.88 133.014 69.88C133.517 69.88 133.924 69.7933 134.236 69.62C134.548 69.4293 134.782 69.1867 134.938 68.892C135.111 68.58 135.224 68.2333 135.276 67.852C135.328 67.4707 135.354 67.072 135.354 66.656V60.364H139.254V73ZM151.506 64.082C150.934 63.3713 150.18 63.016 149.244 63.016C148.914 63.016 148.594 63.094 148.282 63.25C147.97 63.406 147.814 63.6747 147.814 64.056C147.814 64.368 147.97 64.602 148.282 64.758C148.611 64.8967 149.018 65.0267 149.504 65.148C150.006 65.252 150.535 65.3733 151.09 65.512C151.662 65.6333 152.19 65.8327 152.676 66.11C153.178 66.3873 153.586 66.7687 153.898 67.254C154.227 67.722 154.392 68.3547 154.392 69.152C154.392 69.9667 154.21 70.6427 153.846 71.18C153.499 71.7 153.048 72.1247 152.494 72.454C151.939 72.766 151.315 72.9827 150.622 73.104C149.928 73.2427 149.244 73.312 148.568 73.312C147.684 73.312 146.791 73.1907 145.89 72.948C144.988 72.688 144.226 72.2373 143.602 71.596L145.968 68.97C146.332 69.4207 146.73 69.7673 147.164 70.01C147.614 70.2353 148.134 70.348 148.724 70.348C149.174 70.348 149.582 70.2873 149.946 70.166C150.31 70.0273 150.492 69.7847 150.492 69.438C150.492 69.1087 150.327 68.866 149.998 68.71C149.686 68.5367 149.278 68.398 148.776 68.294C148.29 68.1727 147.762 68.0513 147.19 67.93C146.635 67.7913 146.106 67.592 145.604 67.332C145.118 67.072 144.711 66.708 144.382 66.24C144.07 65.7547 143.914 65.1133 143.914 64.316C143.914 63.5707 144.061 62.9293 144.356 62.392C144.668 61.8547 145.066 61.4127 145.552 61.066C146.054 60.7193 146.626 60.468 147.268 60.312C147.909 60.1387 148.559 60.052 149.218 60.052C150.05 60.052 150.89 60.1733 151.74 60.416C152.589 60.6587 153.308 61.092 153.898 61.716L151.506 64.082ZM165.881 64.082C165.309 63.3713 164.555 63.016 163.619 63.016C163.289 63.016 162.969 63.094 162.657 63.25C162.345 63.406 162.189 63.6747 162.189 64.056C162.189 64.368 162.345 64.602 162.657 64.758C162.986 64.8967 163.393 65.0267 163.879 65.148C164.381 65.252 164.91 65.3733 165.465 65.512C166.037 65.6333 166.565 65.8327 167.051 66.11C167.553 66.3873 167.961 66.7687 168.273 67.254C168.602 67.722 168.767 68.3547 168.767 69.152C168.767 69.9667 168.585 70.6427 168.221 71.18C167.874 71.7 167.423 72.1247 166.869 72.454C166.314 72.766 165.69 72.9827 164.997 73.104C164.303 73.2427 163.619 73.312 162.943 73.312C162.059 73.312 161.166 73.1907 160.265 72.948C159.363 72.688 158.601 72.2373 157.977 71.596L160.343 68.97C160.707 69.4207 161.105 69.7673 161.539 70.01C161.989 70.2353 162.509 70.348 163.099 70.348C163.549 70.348 163.957 70.2873 164.321 70.166C164.685 70.0273 164.867 69.7847 164.867 69.438C164.867 69.1087 164.702 68.866 164.373 68.71C164.061 68.5367 163.653 68.398 163.151 68.294C162.665 68.1727 162.137 68.0513 161.565 67.93C161.01 67.7913 160.481 67.592 159.979 67.332C159.493 67.072 159.086 66.708 158.757 66.24C158.445 65.7547 158.289 65.1133 158.289 64.316C158.289 63.5707 158.436 62.9293 158.731 62.392C159.043 61.8547 159.441 61.4127 159.927 61.066C160.429 60.7193 161.001 60.468 161.643 60.312C162.284 60.1387 162.934 60.052 163.593 60.052C164.425 60.052 165.265 60.1733 166.115 60.416C166.964 60.6587 167.683 61.092 168.273 61.716L165.881 64.082ZM186.285 53.5V79.5H183.009V53.5H186.285ZM205.332 58.18H200.08V54.592H214.64V58.18H209.388V73H205.332V58.18ZM222.446 53.344V62.08H222.498C222.585 61.8373 222.732 61.5947 222.94 61.352C223.148 61.1093 223.399 60.8927 223.694 60.702C223.989 60.5113 224.335 60.3553 224.734 60.234C225.133 60.1127 225.566 60.052 226.034 60.052C227.022 60.052 227.819 60.208 228.426 60.52C229.033 60.8147 229.501 61.2307 229.83 61.768C230.177 62.3053 230.411 62.938 230.532 63.666C230.653 64.394 230.714 65.1827 230.714 66.032V73H226.814V66.812C226.814 66.448 226.797 66.0753 226.762 65.694C226.745 65.2953 226.667 64.9313 226.528 64.602C226.407 64.2727 226.207 64.004 225.93 63.796C225.67 63.588 225.289 63.484 224.786 63.484C224.283 63.484 223.876 63.5793 223.564 63.77C223.252 63.9433 223.009 64.186 222.836 64.498C222.68 64.7927 222.576 65.1307 222.524 65.512C222.472 65.8933 222.446 66.292 222.446 66.708V73H218.546V53.344H222.446ZM247.984 73H244.24V71.284H244.188C244.049 71.5267 243.867 71.7693 243.642 72.012C243.434 72.2547 243.174 72.4713 242.862 72.662C242.55 72.8527 242.194 73.0087 241.796 73.13C241.397 73.2513 240.964 73.312 240.496 73.312C239.508 73.312 238.702 73.1647 238.078 72.87C237.471 72.558 236.994 72.1333 236.648 71.596C236.318 71.0587 236.093 70.426 235.972 69.698C235.868 68.97 235.816 68.1813 235.816 67.332V60.364H239.716V66.552C239.716 66.916 239.724 67.2973 239.742 67.696C239.776 68.0773 239.854 68.4327 239.976 68.762C240.114 69.0913 240.314 69.36 240.574 69.568C240.851 69.776 241.241 69.88 241.744 69.88C242.246 69.88 242.654 69.7933 242.966 69.62C243.278 69.4293 243.512 69.1867 243.668 68.892C243.841 68.58 243.954 68.2333 244.006 67.852C244.058 67.4707 244.084 67.072 244.084 66.656V60.364H247.984V73ZM253.085 60.364H256.829V62.08H256.881C257.003 61.8373 257.176 61.5947 257.401 61.352C257.627 61.1093 257.895 60.8927 258.207 60.702C258.519 60.5113 258.875 60.3553 259.273 60.234C259.672 60.1127 260.105 60.052 260.573 60.052C261.561 60.052 262.359 60.208 262.965 60.52C263.572 60.8147 264.04 61.2307 264.369 61.768C264.716 62.3053 264.95 62.938 265.071 63.666C265.193 64.394 265.253 65.1827 265.253 66.032V73H261.353V66.812C261.353 66.448 261.336 66.0753 261.301 65.694C261.284 65.2953 261.206 64.9313 261.067 64.602C260.946 64.2727 260.747 64.004 260.469 63.796C260.209 63.588 259.828 63.484 259.325 63.484C258.823 63.484 258.415 63.5793 258.103 63.77C257.791 63.9433 257.549 64.186 257.375 64.498C257.219 64.7927 257.115 65.1307 257.063 65.512C257.011 65.8933 256.985 66.292 256.985 66.708V73H253.085V60.364Z" fill="white"/>
</g>
<defs>
<filter id="filter0_d_196_3" x="0.311035" y="0.699951" width="271.653" height="86.8" filterUnits="userSpaceOnUse" color-interpolation-filters="sRGB">
<feFlood flood-opacity="0" result="BackgroundImageFix"/>
<feColorMatrix in="SourceAlpha" type="matrix" values="0 0 0 0 0 0 0 0 0 0 0 0 0 0 0 0 0 0 127 0" result="hardAlpha"/>
<feOffset dy="4"/>
<feGaussianBlur stdDeviation="2"/>
<feComposite in2="hardAlpha" operator="out"/>
<feColorMatrix type="matrix" values="0 0 0 0 0 0 0 0 0 0 0 0 0 0 0 0 0 0 0.25 0"/>
<feBlend mode="normal" in2="BackgroundImageFix" result="effect1_dropShadow_196_3"/>
<feBlend mode="normal" in="SourceGraphic" in2="effect1_dropShadow_196_3" result="shape"/>
</filter>
</defs>
</svg>
