<svg width="257" height="44" viewBox="0 0 257 44" fill="none" xmlns="http://www.w3.org/2000/svg">
<g filter="url(#filter0_d_112_886)">
<path d="M4.6854 18.362C4.6854 15.6987 5.12407 13.286 6.0014 11.124C6.91007 8.962 8.1634 7.129 9.7614 5.625C11.3594 4.08967 13.2551 2.91467 15.4484 2.1C17.6417 1.28533 20.0387 0.877999 22.6394 0.877999C25.2401 0.877999 27.6371 1.28533 29.8304 2.1C32.0237 2.91467 33.9194 4.08967 35.5174 5.625C37.1154 7.129 38.3531 8.962 39.2304 11.124C40.1391 13.286 40.5934 15.6987 40.5934 18.362C40.5934 21.0253 40.1391 23.438 39.2304 25.6C38.3531 27.762 37.1154 29.6107 35.5174 31.146C33.9194 32.65 32.0237 33.8093 29.8304 34.624C27.6371 35.4387 25.2401 35.846 22.6394 35.846C20.0387 35.846 17.6417 35.4387 15.4484 34.624C13.2551 33.8093 11.3594 32.65 9.7614 31.146C8.1634 29.6107 6.91007 27.762 6.0014 25.6C5.12407 23.438 4.6854 21.0253 4.6854 18.362ZM12.2994 18.362C12.2994 19.9287 12.5344 21.37 13.0044 22.686C13.5057 23.9707 14.2107 25.0987 15.1194 26.07C16.0281 27.01 17.1091 27.7463 18.3624 28.279C19.6471 28.8117 21.0727 29.078 22.6394 29.078C24.2061 29.078 25.6161 28.8117 26.8694 28.279C28.1541 27.7463 29.2507 27.01 30.1594 26.07C31.0681 25.0987 31.7574 23.9707 32.2274 22.686C32.7287 21.37 32.9794 19.9287 32.9794 18.362C32.9794 16.8267 32.7287 15.401 32.2274 14.085C31.7574 12.769 31.0681 11.641 30.1594 10.701C29.2507 9.72967 28.1541 8.97767 26.8694 8.445C25.6161 7.91233 24.2061 7.646 22.6394 7.646C21.0727 7.646 19.6471 7.91233 18.3624 8.445C17.1091 8.97767 16.0281 9.72967 15.1194 10.701C14.2107 11.641 13.5057 12.769 13.0044 14.085C12.5344 15.401 12.2994 16.8267 12.2994 18.362ZM45.5769 1.724H57.9849C59.4262 1.724 60.8675 1.83367 62.3089 2.053C63.7815 2.241 65.0975 2.64833 66.2569 3.275C67.4162 3.87033 68.3562 4.71633 69.0769 5.813C69.7975 6.90967 70.1579 8.36667 70.1579 10.184C70.1579 12.064 69.6252 13.6307 68.5599 14.884C67.5259 16.106 66.1472 16.9833 64.4239 17.516V17.61C65.5205 17.7667 66.5075 18.08 67.3849 18.55C68.2935 18.9887 69.0612 19.5683 69.6879 20.289C70.3459 20.9783 70.8472 21.793 71.1919 22.733C71.5365 23.673 71.7089 24.6757 71.7089 25.741C71.7089 27.4957 71.3329 28.9683 70.5809 30.159C69.8289 31.3183 68.8575 32.2583 67.6669 32.979C66.4762 33.6997 65.1289 34.2167 63.6249 34.53C62.1522 34.8433 60.6795 35 59.2069 35H45.5769V1.724ZM52.9089 15.025H58.2199C58.7839 15.025 59.3322 14.9623 59.8649 14.837C60.4289 14.7117 60.9302 14.508 61.3689 14.226C61.8075 13.944 62.1522 13.568 62.4029 13.098C62.6849 12.628 62.8259 12.064 62.8259 11.406C62.8259 10.7167 62.6692 10.1527 62.3559 9.714C62.0739 9.244 61.6979 8.88366 61.2279 8.633C60.7579 8.38233 60.2252 8.21 59.6299 8.116C59.0345 7.99067 58.4549 7.928 57.8909 7.928H52.9089V15.025ZM52.9089 28.796H59.4889C60.0529 28.796 60.6169 28.7333 61.1809 28.608C61.7762 28.4827 62.3089 28.2633 62.7789 27.95C63.2489 27.6367 63.6249 27.2293 63.9069 26.728C64.2202 26.2267 64.3769 25.6157 64.3769 24.895C64.3769 24.1117 64.1732 23.485 63.7659 23.015C63.3899 22.5137 62.9042 22.1377 62.3089 21.887C61.7135 21.6363 61.0712 21.464 60.3819 21.37C59.6925 21.276 59.0502 21.229 58.4549 21.229H52.9089V28.796ZM92.5034 9.855C91.9081 9.103 91.0934 8.55467 90.0594 8.21C89.0568 7.834 88.1011 7.646 87.1924 7.646C86.6598 7.646 86.1114 7.70867 85.5474 7.834C84.9834 7.95933 84.4508 8.163 83.9494 8.445C83.4481 8.69567 83.0408 9.04033 82.7274 9.479C82.4141 9.91766 82.2574 10.4503 82.2574 11.077C82.2574 12.0797 82.6334 12.8473 83.3854 13.38C84.1374 13.9127 85.0774 14.367 86.2054 14.743C87.3648 15.119 88.6024 15.495 89.9184 15.871C91.2344 16.247 92.4564 16.7797 93.5844 17.469C94.7438 18.1583 95.6994 19.0827 96.4514 20.242C97.2034 21.4013 97.5794 22.9523 97.5794 24.895C97.5794 26.7437 97.2348 28.3573 96.5454 29.736C95.8561 31.1147 94.9161 32.2583 93.7254 33.167C92.5661 34.0757 91.2031 34.7493 89.6364 35.188C88.1011 35.6267 86.4718 35.846 84.7484 35.846C82.5864 35.846 80.5811 35.517 78.7324 34.859C76.8838 34.201 75.1604 33.1357 73.5624 31.663L78.7794 25.929C79.5314 26.9317 80.4714 27.715 81.5994 28.279C82.7588 28.8117 83.9494 29.078 85.1714 29.078C85.7668 29.078 86.3621 29.0153 86.9574 28.89C87.5841 28.7333 88.1324 28.514 88.6024 28.232C89.1038 27.95 89.4954 27.5897 89.7774 27.151C90.0908 26.7123 90.2474 26.1953 90.2474 25.6C90.2474 24.5973 89.8558 23.814 89.0724 23.25C88.3204 22.6547 87.3648 22.1533 86.2054 21.746C85.0461 21.3387 83.7928 20.9313 82.4454 20.524C81.0981 20.1167 79.8448 19.5683 78.6854 18.879C77.5261 18.1897 76.5548 17.281 75.7714 16.153C75.0194 15.025 74.6434 13.5367 74.6434 11.688C74.6434 9.902 74.9881 8.33533 75.6774 6.988C76.3981 5.64066 77.3381 4.51266 78.4974 3.604C79.6881 2.69533 81.0511 2.02167 82.5864 1.583C84.1218 1.113 85.7041 0.877999 87.3334 0.877999C89.2134 0.877999 91.0308 1.14433 92.7854 1.677C94.5401 2.20966 96.1224 3.10267 97.5324 4.356L92.5034 9.855ZM103.324 1.724H125.931V8.492H110.656V14.696H125.085V21.464H110.656V28.232H126.777V35H103.324V1.724ZM132.646 1.724H145.524C147.216 1.724 148.814 1.89633 150.318 2.241C151.854 2.55433 153.185 3.10266 154.313 3.886C155.473 4.638 156.381 5.672 157.039 6.988C157.729 8.27267 158.073 9.88633 158.073 11.829C158.073 14.179 157.462 16.1843 156.24 17.845C155.018 19.4743 153.232 20.5083 150.882 20.947L159.342 35H150.553L143.597 21.699H139.978V35H132.646V1.724ZM139.978 15.495H144.302C144.96 15.495 145.65 15.4793 146.37 15.448C147.122 15.3853 147.796 15.2443 148.391 15.025C148.987 14.7743 149.472 14.3983 149.848 13.897C150.256 13.3957 150.459 12.6907 150.459 11.782C150.459 10.936 150.287 10.2623 149.942 9.761C149.598 9.25967 149.159 8.88366 148.626 8.633C148.094 8.351 147.483 8.163 146.793 8.069C146.104 7.975 145.43 7.928 144.772 7.928H139.978V15.495ZM159.833 1.724H168.199L176.424 23.532H176.518L184.884 1.724H192.733L179.009 35H173.134L159.833 1.724ZM196.498 1.724H219.105V8.492H203.83V14.696H218.259V21.464H203.83V28.232H219.951V35H196.498V1.724ZM225.82 1.724H238.698C240.39 1.724 241.988 1.89633 243.492 2.241C245.027 2.55433 246.359 3.10266 247.487 3.886C248.646 4.638 249.555 5.672 250.213 6.988C250.902 8.27267 251.247 9.88633 251.247 11.829C251.247 14.179 250.636 16.1843 249.414 17.845C248.192 19.4743 246.406 20.5083 244.056 20.947L252.516 35H243.727L236.771 21.699H233.152V35H225.82V1.724ZM233.152 15.495H237.476C238.134 15.495 238.823 15.4793 239.544 15.448C240.296 15.3853 240.97 15.2443 241.565 15.025C242.16 14.7743 242.646 14.3983 243.022 13.897C243.429 13.3957 243.633 12.6907 243.633 11.782C243.633 10.936 243.461 10.2623 243.116 9.761C242.771 9.25967 242.333 8.88366 241.8 8.633C241.267 8.351 240.656 8.163 239.967 8.069C239.278 7.975 238.604 7.928 237.946 7.928H233.152V15.495Z" fill="white"/>
</g>
<defs>
<filter id="filter0_d_112_886" x="0.685425" y="0.877991" width="255.831" height="42.968" filterUnits="userSpaceOnUse" color-interpolation-filters="sRGB">
<feFlood flood-opacity="0" result="BackgroundImageFix"/>
<feColorMatrix in="SourceAlpha" type="matrix" values="0 0 0 0 0 0 0 0 0 0 0 0 0 0 0 0 0 0 127 0" result="hardAlpha"/>
<feOffset dy="4"/>
<feGaussianBlur stdDeviation="2"/>
<feComposite in2="hardAlpha" operator="out"/>
<feColorMatrix type="matrix" values="0 0 0 0 0 0 0 0 0 0 0 0 0 0 0 0 0 0 0.25 0"/>
<feBlend mode="normal" in2="BackgroundImageFix" result="effect1_dropShadow_112_886"/>
<feBlend mode="normal" in="SourceGraphic" in2="effect1_dropShadow_112_886" result="shape"/>
</filter>
</defs>
</svg>
