<svg width="181" height="77" viewBox="0 0 181 77" fill="none" xmlns="http://www.w3.org/2000/svg">
<g filter="url(#filter0_d_58_5)">
<path d="M27.8832 10.25C27.2499 9.44995 26.3832 8.86662 25.2832 8.49995C24.2165 8.09995 23.1999 7.89995 22.2332 7.89995C21.6665 7.89995 21.0832 7.96662 20.4832 8.09995C19.8832 8.23328 19.3165 8.44995 18.7832 8.74995C18.2499 9.01662 17.8165 9.38328 17.4832 9.84995C17.1499 10.3166 16.9832 10.8833 16.9832 11.55C16.9832 12.6166 17.3832 13.4333 18.1832 14C18.9832 14.5666 19.9832 15.05 21.1832 15.45C22.4165 15.85 23.7332 16.25 25.1332 16.65C26.5332 17.05 27.8332 17.6166 29.0332 18.35C30.2665 19.0833 31.2832 20.0666 32.0832 21.3C32.8832 22.5333 33.2832 24.1833 33.2832 26.25C33.2832 28.2166 32.9165 29.9333 32.1832 31.4C31.4499 32.8666 30.4499 34.0833 29.1832 35.05C27.9499 36.0166 26.4999 36.7333 24.8332 37.2C23.1999 37.6666 21.4665 37.9 19.6332 37.9C17.3332 37.9 15.1999 37.55 13.2332 36.85C11.2665 36.15 9.43321 35.0166 7.73321 33.45L13.2832 27.35C14.0832 28.4166 15.0832 29.25 16.2832 29.85C17.5165 30.4166 18.7832 30.7 20.0832 30.7C20.7165 30.7 21.3499 30.6333 21.9832 30.5C22.6499 30.3333 23.2332 30.1 23.7332 29.8C24.2665 29.5 24.6832 29.1166 24.9832 28.65C25.3165 28.1833 25.4832 27.6333 25.4832 27C25.4832 25.9333 25.0665 25.1 24.2332 24.5C23.4332 23.8666 22.4165 23.3333 21.1832 22.9C19.9499 22.4666 18.6165 22.0333 17.1832 21.6C15.7499 21.1666 14.4165 20.5833 13.1832 19.85C11.9499 19.1166 10.9165 18.15 10.0832 16.95C9.28321 15.75 8.88321 14.1666 8.88321 12.2C8.88321 10.2999 9.24988 8.63328 9.98321 7.19995C10.7499 5.76662 11.7499 4.56662 12.9832 3.59995C14.2499 2.63328 15.6999 1.91662 17.3332 1.44995C18.9665 0.949951 20.6499 0.699951 22.3832 0.699951C24.3832 0.699951 26.3165 0.983284 28.1832 1.54995C30.0499 2.11662 31.7332 3.06662 33.2332 4.39995L27.8832 10.25Z" fill="white"/>
<path d="M68.9441 23.35C68.9441 25.45 68.6275 27.3833 67.9941 29.15C67.3608 30.9166 66.4108 32.45 65.1441 33.75C63.9108 35.05 62.3608 36.0666 60.4941 36.8C58.6275 37.5333 56.4775 37.9 54.0441 37.9C51.5775 37.9 49.4108 37.5333 47.5441 36.8C45.6775 36.0666 44.1108 35.05 42.8441 33.75C41.6108 32.45 40.6775 30.9166 40.0441 29.15C39.4108 27.3833 39.0941 25.45 39.0941 23.35V1.59995H46.8941V23.05C46.8941 24.15 47.0608 25.1666 47.3941 26.1C47.7608 27.0333 48.2608 27.85 48.8941 28.55C49.5275 29.2166 50.2775 29.75 51.1441 30.15C52.0441 30.5166 53.0108 30.7 54.0441 30.7C55.0775 30.7 56.0275 30.5166 56.8941 30.15C57.7608 29.75 58.5108 29.2166 59.1441 28.55C59.7775 27.85 60.2608 27.0333 60.5942 26.1C60.9608 25.1666 61.1441 24.15 61.1441 23.05V1.59995H68.9441V23.35Z" fill="white"/>
<path d="M76.1547 1.59995H89.8547C91.6547 1.59995 93.3547 1.78328 94.9547 2.14995C96.588 2.48328 98.0047 3.06662 99.2047 3.89995C100.438 4.69995 101.405 5.79995 102.105 7.19995C102.838 8.56662 103.205 10.2833 103.205 12.3499C103.205 14.85 102.555 16.9833 101.255 18.75C99.9547 20.4833 98.0547 21.5833 95.5547 22.0499L104.555 37H95.2047L87.8047 22.85H83.9547V37H76.1547V1.59995ZM83.9547 16.25H88.5547C89.2547 16.25 89.988 16.2333 90.7547 16.2C91.5547 16.1333 92.2714 15.9833 92.9047 15.75C93.538 15.4833 94.0547 15.0833 94.4547 14.55C94.888 14.0166 95.1047 13.2666 95.1047 12.3C95.1047 11.4 94.9214 10.6833 94.5547 10.15C94.188 9.61662 93.7214 9.21662 93.1547 8.94995C92.588 8.64995 91.938 8.44995 91.2047 8.34995C90.4714 8.24995 89.7547 8.19995 89.0547 8.19995H83.9547V16.25Z" fill="white"/>
<path d="M108.877 1.59995H132.627V8.79995H116.677V16H131.427V23.2H116.677V37H108.877V1.59995Z" fill="white"/>
<path d="M136.315 19.3C136.315 16.4666 136.782 13.9 137.715 11.6C138.682 9.29995 140.015 7.34995 141.715 5.74995C143.415 4.11662 145.432 2.86662 147.765 1.99995C150.099 1.13328 152.649 0.699951 155.415 0.699951C158.182 0.699951 160.732 1.13328 163.065 1.99995C165.399 2.86662 167.415 4.11662 169.115 5.74995C170.815 7.34995 172.132 9.29995 173.065 11.6C174.032 13.9 174.515 16.4666 174.515 19.3C174.515 22.1333 174.032 24.7 173.065 27C172.132 29.3 170.815 31.2666 169.115 32.9C167.415 34.5 165.399 35.7333 163.065 36.6C160.732 37.4666 158.182 37.9 155.415 37.9C152.649 37.9 150.099 37.4666 147.765 36.6C145.432 35.7333 143.415 34.5 141.715 32.9C140.015 31.2666 138.682 29.3 137.715 27C136.782 24.7 136.315 22.1333 136.315 19.3ZM144.415 19.3C144.415 20.9666 144.665 22.5 145.165 23.9C145.699 25.2666 146.449 26.4666 147.415 27.5C148.382 28.5 149.532 29.2833 150.865 29.85C152.232 30.4166 153.749 30.7 155.415 30.7C157.082 30.7 158.582 30.4166 159.915 29.85C161.282 29.2833 162.449 28.5 163.415 27.5C164.382 26.4666 165.115 25.2666 165.615 23.9C166.149 22.5 166.415 20.9666 166.415 19.3C166.415 17.6666 166.149 16.15 165.615 14.75C165.115 13.35 164.382 12.15 163.415 11.15C162.449 10.1166 161.282 9.31662 159.915 8.74995C158.582 8.18328 157.082 7.89995 155.415 7.89995C153.749 7.89995 152.232 8.18328 150.865 8.74995C149.532 9.31662 148.382 10.1166 147.415 11.15C146.449 12.15 145.699 13.35 145.165 14.75C144.665 16.15 144.415 17.6666 144.415 19.3Z" fill="white"/>
<path d="M4.9854 49.84H8.3854L10.6454 58.92H10.6854L13.6454 49.84H16.5454L19.4854 59.16H19.5254L21.9054 49.84H25.0654L20.9254 64H18.1454L15.0254 54.2H14.9854L11.8654 64H9.1854L4.9854 49.84Z" fill="white"/>
<path d="M31.4432 62.78H31.4032C31.0699 63.3 30.6232 63.6733 30.0632 63.9C29.5165 64.1266 28.9365 64.24 28.3232 64.24C27.8699 64.24 27.4299 64.1733 27.0032 64.04C26.5899 63.92 26.2232 63.7333 25.9032 63.4799C25.5832 63.2266 25.3299 62.9133 25.1432 62.54C24.9565 62.1666 24.8632 61.7333 24.8632 61.24C24.8632 60.68 24.9632 60.2066 25.1632 59.82C25.3765 59.4333 25.6565 59.1133 26.0032 58.86C26.3632 58.6066 26.7699 58.4133 27.2232 58.28C27.6765 58.1333 28.1432 58.0266 28.6232 57.96C29.1165 57.8933 29.6032 57.8533 30.0832 57.84C30.5765 57.8266 31.0299 57.82 31.4432 57.82C31.4432 57.2866 31.2499 56.8666 30.8632 56.56C30.4899 56.24 30.0432 56.08 29.5232 56.08C29.0299 56.08 28.5765 56.1866 28.1632 56.4C27.7632 56.6 27.4032 56.88 27.0832 57.24L25.4832 55.6C26.0432 55.08 26.6965 54.6933 27.4432 54.44C28.1899 54.1733 28.9632 54.04 29.7632 54.04C30.6432 54.04 31.3632 54.1533 31.9232 54.38C32.4965 54.5933 32.9499 54.9133 33.2832 55.34C33.6299 55.7666 33.8699 56.2933 34.0032 56.92C34.1365 57.5333 34.2032 58.2466 34.2032 59.06V64H31.4432V62.78ZM30.7032 59.74C30.4765 59.74 30.1899 59.7533 29.8432 59.78C29.5099 59.7933 29.1832 59.8466 28.8632 59.94C28.5565 60.0333 28.2899 60.1733 28.0632 60.36C27.8499 60.5466 27.7432 60.8066 27.7432 61.1399C27.7432 61.4999 27.8965 61.7666 28.2032 61.94C28.5099 62.1133 28.8299 62.2 29.1632 62.2C29.4565 62.2 29.7365 62.16 30.0032 62.08C30.2832 62 30.5299 61.8866 30.7432 61.74C30.9565 61.5933 31.1232 61.4066 31.2432 61.18C31.3765 60.9533 31.4432 60.6866 31.4432 60.38V59.74H30.7032Z" fill="white"/>
<path d="M41.5854 57.1399C41.1454 56.5933 40.5654 56.32 39.8454 56.32C39.5921 56.32 39.3454 56.38 39.1054 56.5C38.8654 56.62 38.7454 56.8266 38.7454 57.12C38.7454 57.36 38.8654 57.54 39.1054 57.66C39.3587 57.7666 39.6721 57.8666 40.0454 57.96C40.4321 58.04 40.8387 58.1333 41.2654 58.24C41.7054 58.3333 42.1121 58.4866 42.4854 58.7C42.8721 58.9133 43.1854 59.2066 43.4254 59.58C43.6787 59.94 43.8054 60.4266 43.8054 61.04C43.8054 61.6666 43.6654 62.1866 43.3854 62.6C43.1187 63 42.7721 63.3266 42.3454 63.58C41.9187 63.82 41.4387 63.9866 40.9054 64.08C40.3721 64.1866 39.8454 64.24 39.3254 64.24C38.6454 64.24 37.9587 64.1466 37.2654 63.96C36.5721 63.76 35.9854 63.4133 35.5054 62.92L37.3254 60.9C37.6054 61.2466 37.9121 61.5133 38.2454 61.7C38.5921 61.8733 38.9921 61.96 39.4454 61.96C39.7921 61.96 40.1054 61.9133 40.3854 61.82C40.6654 61.7133 40.8054 61.5266 40.8054 61.26C40.8054 61.0066 40.6787 60.82 40.4254 60.7C40.1854 60.5666 39.8721 60.46 39.4854 60.38C39.1121 60.2866 38.7054 60.1933 38.2654 60.1C37.8387 59.9933 37.4321 59.8399 37.0454 59.6399C36.6721 59.4399 36.3587 59.1599 36.1054 58.7999C35.8654 58.4266 35.7454 57.9333 35.7454 57.32C35.7454 56.7466 35.8587 56.2533 36.0854 55.84C36.3254 55.4266 36.6321 55.0866 37.0054 54.82C37.3921 54.5533 37.8321 54.36 38.3254 54.24C38.8187 54.1066 39.3187 54.04 39.8254 54.04C40.4654 54.04 41.1121 54.1333 41.7654 54.32C42.4187 54.5066 42.9721 54.8399 43.4254 55.32L41.5854 57.1399Z" fill="white"/>
<path d="M50.8432 57.1399C50.4032 56.5933 49.8232 56.32 49.1032 56.32C48.8499 56.32 48.6032 56.38 48.3632 56.5C48.1232 56.62 48.0032 56.8266 48.0032 57.12C48.0032 57.36 48.1232 57.54 48.3632 57.66C48.6165 57.7666 48.9299 57.8666 49.3032 57.96C49.6899 58.04 50.0965 58.1333 50.5232 58.24C50.9632 58.3333 51.3699 58.4866 51.7432 58.7C52.1299 58.9133 52.4432 59.2066 52.6832 59.58C52.9365 59.94 53.0632 60.4266 53.0632 61.04C53.0632 61.6666 52.9232 62.1866 52.6432 62.6C52.3765 63 52.0299 63.3266 51.6032 63.58C51.1765 63.82 50.6965 63.9866 50.1632 64.08C49.6299 64.1866 49.1032 64.24 48.5832 64.24C47.9032 64.24 47.2165 64.1466 46.5232 63.96C45.8299 63.76 45.2432 63.4133 44.7632 62.92L46.5832 60.9C46.8632 61.2466 47.1699 61.5133 47.5032 61.7C47.8499 61.8733 48.2499 61.96 48.7032 61.96C49.0499 61.96 49.3632 61.9133 49.6432 61.82C49.9232 61.7133 50.0632 61.5266 50.0632 61.26C50.0632 61.0066 49.9365 60.82 49.6832 60.7C49.4432 60.5666 49.1299 60.46 48.7432 60.38C48.3699 60.2866 47.9632 60.1933 47.5232 60.1C47.0965 59.9933 46.6899 59.8399 46.3032 59.6399C45.9299 59.4399 45.6165 59.1599 45.3632 58.7999C45.1232 58.4266 45.0032 57.9333 45.0032 57.32C45.0032 56.7466 45.1165 56.2533 45.3432 55.84C45.5832 55.4266 45.8899 55.0866 46.2632 54.82C46.6499 54.5533 47.0899 54.36 47.5832 54.24C48.0765 54.1066 48.5765 54.04 49.0832 54.04C49.7232 54.04 50.3699 54.1333 51.0232 54.32C51.6765 54.5066 52.2299 54.8399 52.6832 55.32L50.8432 57.1399Z" fill="white"/>
<path d="M63.801 62.32C63.321 62.9333 62.7144 63.4066 61.981 63.74C61.2477 64.0733 60.4877 64.24 59.701 64.24C58.9544 64.24 58.2477 64.12 57.581 63.88C56.9277 63.64 56.3544 63.3 55.861 62.86C55.381 62.4066 55.001 61.8666 54.721 61.24C54.441 60.6133 54.301 59.9133 54.301 59.1399C54.301 58.3666 54.441 57.6666 54.721 57.04C55.001 56.4133 55.381 55.88 55.861 55.44C56.3544 54.9866 56.9277 54.64 57.581 54.4C58.2477 54.16 58.9544 54.04 59.701 54.04C60.3944 54.04 61.021 54.16 61.581 54.4C62.1544 54.64 62.6344 54.9866 63.021 55.44C63.421 55.88 63.7277 56.4133 63.941 57.04C64.1544 57.6666 64.261 58.3666 64.261 59.1399V60.08H57.301C57.421 60.6533 57.681 61.1133 58.081 61.46C58.481 61.7933 58.9744 61.96 59.561 61.96C60.0544 61.96 60.4677 61.8533 60.801 61.6399C61.1477 61.4133 61.4477 61.1266 61.701 60.78L63.801 62.32ZM61.261 58.04C61.2744 57.5333 61.1077 57.1 60.761 56.74C60.4144 56.38 59.9677 56.2 59.421 56.2C59.0877 56.2 58.7944 56.2533 58.541 56.36C58.2877 56.4666 58.0677 56.6066 57.881 56.78C57.7077 56.94 57.5677 57.1333 57.461 57.36C57.3677 57.5733 57.3144 57.8 57.301 58.04H61.261Z" fill="white"/>
<path d="M66.0854 54.28H69.0854V55.84H69.1254C69.4454 55.24 69.8254 54.7933 70.2654 54.5C70.7054 54.1933 71.2587 54.04 71.9254 54.04C72.0987 54.04 72.2721 54.0466 72.4454 54.06C72.6187 54.0733 72.7787 54.0999 72.9254 54.1399V56.88C72.7121 56.8133 72.4987 56.7666 72.2854 56.74C72.0854 56.7 71.8721 56.68 71.6454 56.68C71.0721 56.68 70.6187 56.76 70.2854 56.92C69.9521 57.08 69.6921 57.3066 69.5054 57.6C69.3321 57.88 69.2187 58.2199 69.1654 58.6199C69.1121 59.0199 69.0854 59.46 69.0854 59.94V64H66.0854V54.28Z" fill="white"/>
<path d="M81.6699 48.88H84.6699V64H81.6699V48.88ZM75.2699 56.68H73.2899V54.28H75.2699V52.56C75.2699 52.0266 75.3166 51.5266 75.4099 51.06C75.5033 50.58 75.6833 50.1599 75.9499 49.7999C76.2166 49.4399 76.5966 49.1599 77.0899 48.9599C77.5966 48.7466 78.2566 48.6399 79.0699 48.6399C79.3766 48.6399 79.6766 48.6533 79.9699 48.68C80.2633 48.7066 80.5499 48.7533 80.8299 48.82L80.6899 51.36C80.5166 51.2933 80.3566 51.2466 80.2099 51.22C80.0633 51.18 79.8966 51.16 79.7099 51.16C79.2299 51.16 78.8699 51.2666 78.6299 51.4799C78.3899 51.68 78.2699 52.1 78.2699 52.74V54.28H80.4899V56.68H78.2699V64H75.2699V56.68Z" fill="white"/>
<path d="M96.1876 64H93.3076V62.68H93.2676C93.1609 62.8666 93.0209 63.0533 92.8476 63.24C92.6876 63.4266 92.4876 63.5933 92.2476 63.74C92.0076 63.8866 91.7342 64.0066 91.4276 64.1C91.1209 64.1933 90.7876 64.24 90.4276 64.24C89.6676 64.24 89.0476 64.1266 88.5676 63.9C88.1009 63.66 87.7342 63.3333 87.4676 62.92C87.2142 62.5066 87.0409 62.02 86.9476 61.46C86.8676 60.9 86.8276 60.2933 86.8276 59.6399V54.28H89.8276V59.04C89.8276 59.32 89.8343 59.6133 89.8476 59.92C89.8743 60.2133 89.9343 60.4866 90.0276 60.74C90.1343 60.9933 90.2876 61.2 90.4876 61.36C90.7009 61.52 91.0009 61.6 91.3876 61.6C91.7743 61.6 92.0876 61.5333 92.3276 61.4C92.5676 61.2533 92.7476 61.0666 92.8676 60.84C93.0009 60.6 93.0876 60.3333 93.1276 60.04C93.1676 59.7466 93.1876 59.44 93.1876 59.12V54.28H96.1876V64Z" fill="white"/>
<path d="M103.812 57.1399C103.372 56.5933 102.792 56.32 102.072 56.32C101.819 56.32 101.572 56.38 101.332 56.5C101.092 56.62 100.972 56.8266 100.972 57.12C100.972 57.36 101.092 57.54 101.332 57.66C101.585 57.7666 101.899 57.8666 102.272 57.96C102.659 58.04 103.065 58.1333 103.492 58.24C103.932 58.3333 104.339 58.4866 104.712 58.7C105.099 58.9133 105.412 59.2066 105.652 59.58C105.905 59.94 106.032 60.4266 106.032 61.04C106.032 61.6666 105.892 62.1866 105.612 62.6C105.345 63 104.999 63.3266 104.572 63.58C104.145 63.82 103.665 63.9866 103.132 64.08C102.599 64.1866 102.072 64.24 101.552 64.24C100.872 64.24 100.185 64.1466 99.492 63.96C98.7986 63.76 98.212 63.4133 97.732 62.92L99.552 60.9C99.832 61.2466 100.139 61.5133 100.472 61.7C100.819 61.8733 101.219 61.96 101.672 61.96C102.019 61.96 102.332 61.9133 102.612 61.82C102.892 61.7133 103.032 61.5266 103.032 61.26C103.032 61.0066 102.905 60.82 102.652 60.7C102.412 60.5666 102.099 60.46 101.712 60.38C101.339 60.2866 100.932 60.1933 100.492 60.1C100.065 59.9933 99.6586 59.8399 99.272 59.6399C98.8986 59.4399 98.5853 59.1599 98.332 58.7999C98.092 58.4266 97.972 57.9333 97.972 57.32C97.972 56.7466 98.0853 56.2533 98.312 55.84C98.552 55.4266 98.8586 55.0866 99.232 54.82C99.6186 54.5533 100.059 54.36 100.552 54.24C101.045 54.1066 101.545 54.04 102.052 54.04C102.692 54.04 103.339 54.1333 103.992 54.32C104.645 54.5066 105.199 54.8399 105.652 55.32L103.812 57.1399Z" fill="white"/>
<path d="M113.07 57.1399C112.63 56.5933 112.05 56.32 111.33 56.32C111.076 56.32 110.83 56.38 110.59 56.5C110.35 56.62 110.23 56.8266 110.23 57.12C110.23 57.36 110.35 57.54 110.59 57.66C110.843 57.7666 111.156 57.8666 111.53 57.96C111.916 58.04 112.323 58.1333 112.75 58.24C113.19 58.3333 113.596 58.4866 113.97 58.7C114.356 58.9133 114.67 59.2066 114.91 59.58C115.163 59.94 115.29 60.4266 115.29 61.04C115.29 61.6666 115.15 62.1866 114.87 62.6C114.603 63 114.256 63.3266 113.83 63.58C113.403 63.82 112.923 63.9866 112.39 64.08C111.856 64.1866 111.33 64.24 110.81 64.24C110.13 64.24 109.443 64.1466 108.75 63.96C108.056 63.76 107.47 63.4133 106.99 62.92L108.81 60.9C109.09 61.2466 109.396 61.5133 109.73 61.7C110.076 61.8733 110.476 61.96 110.93 61.96C111.276 61.96 111.59 61.9133 111.87 61.82C112.15 61.7133 112.29 61.5266 112.29 61.26C112.29 61.0066 112.163 60.82 111.91 60.7C111.67 60.5666 111.356 60.46 110.97 60.38C110.596 60.2866 110.19 60.1933 109.75 60.1C109.323 59.9933 108.916 59.8399 108.53 59.6399C108.156 59.4399 107.843 59.1599 107.59 58.7999C107.35 58.4266 107.23 57.9333 107.23 57.32C107.23 56.7466 107.343 56.2533 107.57 55.84C107.81 55.4266 108.116 55.0866 108.49 54.82C108.876 54.5533 109.316 54.36 109.81 54.24C110.303 54.1066 110.803 54.04 111.31 54.04C111.95 54.04 112.596 54.1333 113.25 54.32C113.903 54.5066 114.456 54.8399 114.91 55.32L113.07 57.1399Z" fill="white"/>
<path d="M125.166 49V69H122.646V49H125.166Z" fill="white"/>
<path d="M136.217 52.5999H132.177V49.84H143.377V52.5999H139.337V64H136.217V52.5999Z" fill="white"/>
<path d="M147.581 48.88V55.6H147.621C147.688 55.4133 147.801 55.2266 147.961 55.04C148.121 54.8533 148.315 54.6866 148.541 54.54C148.768 54.3933 149.035 54.2733 149.341 54.18C149.648 54.0866 149.981 54.04 150.341 54.04C151.101 54.04 151.715 54.16 152.181 54.4C152.648 54.6266 153.008 54.9466 153.261 55.36C153.528 55.7733 153.708 56.26 153.801 56.82C153.895 57.38 153.941 57.9866 153.941 58.6399V64H150.941V59.24C150.941 58.96 150.928 58.6733 150.901 58.38C150.888 58.0733 150.828 57.7933 150.721 57.54C150.628 57.2866 150.475 57.08 150.261 56.92C150.061 56.76 149.768 56.68 149.381 56.68C148.995 56.68 148.681 56.7533 148.441 56.9C148.201 57.0333 148.015 57.2199 147.881 57.4599C147.761 57.6866 147.681 57.9466 147.641 58.24C147.601 58.5333 147.581 58.84 147.581 59.16V64H144.581V48.88H147.581Z" fill="white"/>
<path d="M165.426 64H162.546V62.68H162.506C162.399 62.8666 162.259 63.0533 162.086 63.24C161.926 63.4266 161.726 63.5933 161.486 63.74C161.246 63.8866 160.973 64.0066 160.666 64.1C160.359 64.1933 160.026 64.24 159.666 64.24C158.906 64.24 158.286 64.1266 157.806 63.9C157.339 63.66 156.973 63.3333 156.706 62.92C156.453 62.5066 156.279 62.02 156.186 61.46C156.106 60.9 156.066 60.2933 156.066 59.6399V54.28H159.066V59.04C159.066 59.32 159.073 59.6133 159.086 59.92C159.113 60.2133 159.173 60.4866 159.266 60.74C159.373 60.9933 159.526 61.2 159.726 61.36C159.939 61.52 160.239 61.6 160.626 61.6C161.013 61.6 161.326 61.5333 161.566 61.4C161.806 61.2533 161.986 61.0666 162.106 60.84C162.239 60.6 162.326 60.3333 162.366 60.04C162.406 59.7466 162.426 59.44 162.426 59.12V54.28H165.426V64Z" fill="white"/>
<path d="M167.55 54.28H170.43V55.6H170.47C170.564 55.4133 170.697 55.2266 170.87 55.04C171.044 54.8533 171.25 54.6866 171.49 54.54C171.73 54.3933 172.004 54.2733 172.31 54.18C172.617 54.0866 172.95 54.04 173.31 54.04C174.07 54.04 174.684 54.16 175.15 54.4C175.617 54.6266 175.977 54.9466 176.23 55.36C176.497 55.7733 176.677 56.26 176.77 56.82C176.864 57.38 176.91 57.9866 176.91 58.6399V64H173.91V59.24C173.91 58.96 173.897 58.6733 173.87 58.38C173.857 58.0733 173.797 57.7933 173.69 57.54C173.597 57.2866 173.444 57.08 173.23 56.92C173.03 56.76 172.737 56.68 172.35 56.68C171.964 56.68 171.65 56.7533 171.41 56.9C171.17 57.0333 170.984 57.2199 170.85 57.4599C170.73 57.6866 170.65 57.9466 170.61 58.24C170.57 58.5333 170.55 58.84 170.55 59.16V64H167.55V54.28Z" fill="white"/>
</g>
<defs>
<filter id="filter0_d_58_5" x="0.985397" y="0.699951" width="179.925" height="76.3" filterUnits="userSpaceOnUse" color-interpolation-filters="sRGB">
<feFlood flood-opacity="0" result="BackgroundImageFix"/>
<feColorMatrix in="SourceAlpha" type="matrix" values="0 0 0 0 0 0 0 0 0 0 0 0 0 0 0 0 0 0 127 0" result="hardAlpha"/>
<feOffset dy="4"/>
<feGaussianBlur stdDeviation="2"/>
<feComposite in2="hardAlpha" operator="out"/>
<feColorMatrix type="matrix" values="0 0 0 0 0 0 0 0 0 0 0 0 0 0 0 0 0 0 0.25 0"/>
<feBlend mode="normal" in2="BackgroundImageFix" result="effect1_dropShadow_58_5"/>
<feBlend mode="normal" in="SourceGraphic" in2="effect1_dropShadow_58_5" result="shape"/>
</filter>
</defs>
</svg>
