<svg width="115" height="67" viewBox="0 0 115 67" fill="none" xmlns="http://www.w3.org/2000/svg">
<g filter="url(#filter0_d_168_2804)">
<path d="M107.817 2.99678H108.289C108.418 2.99678 108.543 2.99216 108.663 2.98291C108.793 2.96441 108.904 2.93204 108.996 2.88579C109.098 2.83954 109.177 2.7748 109.232 2.69156C109.288 2.60831 109.315 2.50194 109.315 2.37245C109.315 2.22446 109.246 2.11347 109.107 2.03948C108.969 1.95623 108.779 1.91461 108.538 1.91461C108.316 1.91461 108.122 1.97011 107.956 2.0811C107.798 2.18284 107.697 2.33083 107.65 2.52507L106.124 2.24759C106.282 1.65563 106.578 1.24404 107.012 1.0128C107.456 0.781571 107.965 0.665955 108.538 0.665955C108.834 0.665955 109.121 0.698327 109.399 0.763072C109.676 0.827817 109.917 0.924935 110.12 1.05443C110.333 1.18392 110.499 1.3504 110.62 1.55389C110.749 1.74812 110.814 1.97936 110.814 2.24759C110.814 2.57131 110.717 2.85342 110.522 3.0939C110.328 3.32513 110.041 3.47312 109.662 3.53787V3.56561C110.069 3.61186 110.384 3.7691 110.606 4.03733C110.828 4.30556 110.939 4.61079 110.939 4.95301C110.939 5.24899 110.874 5.50797 110.744 5.72995C110.615 5.95194 110.439 6.13692 110.217 6.28491C109.995 6.4329 109.736 6.54389 109.44 6.61789C109.144 6.69188 108.83 6.72888 108.497 6.72888C107.886 6.72888 107.364 6.60401 106.929 6.35428C106.494 6.10455 106.208 5.68371 106.069 5.09175L107.581 4.78652C107.627 4.99926 107.724 5.17037 107.872 5.29986C108.02 5.4201 108.229 5.48022 108.497 5.48022C108.765 5.48022 108.987 5.42935 109.163 5.32761C109.348 5.22587 109.44 5.05475 109.44 4.81427C109.44 4.65703 109.403 4.53679 109.329 4.45355C109.255 4.36106 109.158 4.29631 109.038 4.25931C108.918 4.21307 108.779 4.18532 108.622 4.17607C108.474 4.16682 108.321 4.1622 108.164 4.1622H107.817V2.99678Z" fill="white"/>
</g>
<g filter="url(#filter1_d_168_2804)">
<path d="M93.7302 0.83247H97.0045L99.2659 7.24224H99.2937L101.569 0.83247H104.829V10.6552H102.665V3.12167H102.637L100.057 10.6552H98.4058L95.9223 3.12167H95.8946V10.6552H93.7302V0.83247Z" fill="white"/>
</g>
<g filter="url(#filter2_d_168_2804)">
<path d="M104.378 18.2165C104.202 17.9945 103.962 17.8326 103.656 17.7309C103.36 17.6199 103.078 17.5644 102.81 17.5644C102.653 17.5644 102.491 17.5829 102.324 17.6199C102.158 17.6569 102.001 17.717 101.853 17.8003C101.705 17.8743 101.585 17.976 101.492 18.1055C101.4 18.235 101.353 18.3922 101.353 18.5772C101.353 18.8732 101.464 19.0998 101.686 19.257C101.908 19.4143 102.186 19.5484 102.519 19.6594C102.861 19.7704 103.226 19.8814 103.615 19.9924C104.003 20.1033 104.364 20.2606 104.697 20.4641C105.039 20.6676 105.321 20.9404 105.543 21.2826C105.765 21.6249 105.876 22.0827 105.876 22.6562C105.876 23.2019 105.774 23.6782 105.571 24.0852C105.368 24.4921 105.09 24.8297 104.739 25.098C104.396 25.3662 103.994 25.5651 103.532 25.6946C103.078 25.824 102.597 25.8888 102.089 25.8888C101.45 25.8888 100.858 25.7917 100.313 25.5974C99.767 25.4032 99.2583 25.0887 98.7866 24.654L100.327 22.9614C100.549 23.2574 100.826 23.4886 101.159 23.6551C101.501 23.8123 101.853 23.8909 102.213 23.8909C102.389 23.8909 102.565 23.8724 102.741 23.8354C102.926 23.7892 103.088 23.7245 103.226 23.6412C103.374 23.558 103.49 23.4516 103.573 23.3221C103.666 23.1926 103.712 23.04 103.712 22.8643C103.712 22.5683 103.596 22.3371 103.365 22.1706C103.143 21.9948 102.861 21.8468 102.519 21.7266C102.176 21.6064 101.807 21.4861 101.409 21.3659C101.011 21.2456 100.641 21.0838 100.299 20.8803C99.9567 20.6768 99.6699 20.4086 99.4387 20.0756C99.2167 19.7426 99.1057 19.3033 99.1057 18.7576C99.1057 18.2304 99.2075 17.7679 99.4109 17.3702C99.6237 16.9725 99.9012 16.6395 100.243 16.3712C100.595 16.103 100.997 15.9042 101.45 15.7747C101.904 15.6359 102.371 15.5666 102.852 15.5666C103.407 15.5666 103.943 15.6452 104.461 15.8024C104.979 15.9597 105.446 16.2233 105.862 16.5932L104.378 18.2165Z" fill="white"/>
</g>
<g filter="url(#filter3_d_168_2804)">
<path d="M109.209 50.3653C109.02 50.1255 108.76 49.9507 108.43 49.8408C108.111 49.7209 107.806 49.661 107.516 49.661C107.346 49.661 107.172 49.681 106.992 49.7209C106.812 49.7609 106.642 49.8258 106.482 49.9157C106.323 49.9956 106.193 50.1055 106.093 50.2454C105.993 50.3852 105.943 50.555 105.943 50.7548C105.943 51.0745 106.063 51.3192 106.303 51.489C106.542 51.6589 106.842 51.8037 107.202 51.9236C107.571 52.0434 107.966 52.1633 108.385 52.2832C108.805 52.4031 109.194 52.5729 109.554 52.7926C109.924 53.0124 110.228 53.3071 110.468 53.6767C110.708 54.0463 110.828 54.5408 110.828 55.1601C110.828 55.7495 110.718 56.2639 110.498 56.7034C110.278 57.143 109.979 57.5076 109.599 57.7973C109.229 58.0869 108.795 58.3017 108.295 58.4416C107.806 58.5814 107.286 58.6513 106.737 58.6513C106.048 58.6513 105.408 58.5465 104.819 58.3367C104.23 58.1269 103.68 57.7873 103.171 57.3178L104.834 55.4897C105.074 55.8094 105.374 56.0591 105.733 56.2389C106.103 56.4088 106.482 56.4937 106.872 56.4937C107.062 56.4937 107.252 56.4737 107.441 56.4337C107.641 56.3838 107.816 56.3139 107.966 56.224C108.126 56.134 108.25 56.0192 108.34 55.8793C108.44 55.7395 108.49 55.5746 108.49 55.3849C108.49 55.0652 108.365 54.8155 108.116 54.6357C107.876 54.4459 107.571 54.286 107.202 54.1562C106.832 54.0263 106.432 53.8965 106.003 53.7666C105.573 53.6367 105.174 53.4619 104.804 53.2422C104.435 53.0224 104.125 52.7327 103.875 52.3731C103.635 52.0135 103.516 51.539 103.516 50.9496C103.516 50.3802 103.625 49.8808 103.845 49.4512C104.075 49.0217 104.375 48.6621 104.744 48.3724C105.124 48.0827 105.558 47.8679 106.048 47.7281C106.537 47.5782 107.042 47.5033 107.561 47.5033C108.161 47.5033 108.74 47.5882 109.299 47.7581C109.859 47.9279 110.363 48.2126 110.813 48.6121L109.209 50.3653Z" fill="white"/>
</g>
<g filter="url(#filter4_d_168_2804)">
<path d="M100.605 50.3653C100.416 50.1255 100.156 49.9507 99.8262 49.8408C99.5065 49.7209 99.2019 49.661 98.9122 49.661C98.7423 49.661 98.5675 49.681 98.3877 49.7209C98.2079 49.7609 98.0381 49.8258 97.8783 49.9157C97.7184 49.9956 97.5886 50.1055 97.4887 50.2454C97.3888 50.3852 97.3389 50.555 97.3389 50.7548C97.3389 51.0745 97.4587 51.3192 97.6985 51.489C97.9382 51.6589 98.2379 51.8037 98.5975 51.9236C98.9671 52.0434 99.3617 52.1633 99.7812 52.2832C100.201 52.4031 100.59 52.5729 100.95 52.7926C101.32 53.0124 101.624 53.3071 101.864 53.6767C102.104 54.0463 102.224 54.5408 102.224 55.1601C102.224 55.7495 102.114 56.2639 101.894 56.7034C101.674 57.143 101.375 57.5076 100.995 57.7973C100.625 58.0869 100.191 58.3017 99.6913 58.4416C99.2018 58.5814 98.6824 58.6513 98.133 58.6513C97.4437 58.6513 96.8044 58.5465 96.2151 58.3367C95.6257 58.1269 95.0763 57.7873 94.5668 57.3178L96.23 55.4897C96.4698 55.8094 96.7695 56.0591 97.1291 56.2389C97.4987 56.4088 97.8783 56.4937 98.2679 56.4937C98.4577 56.4937 98.6475 56.4737 98.8372 56.4337C99.037 56.3838 99.2118 56.3139 99.3617 56.224C99.5215 56.134 99.6464 56.0192 99.7363 55.8793C99.8362 55.7395 99.8861 55.5746 99.8861 55.3849C99.8861 55.0652 99.7613 54.8155 99.5115 54.6357C99.2718 54.4459 98.9671 54.286 98.5975 54.1562C98.2279 54.0263 97.8283 53.8965 97.3988 53.7666C96.9692 53.6367 96.5697 53.4619 96.2001 53.2422C95.8305 53.0224 95.5208 52.7327 95.2711 52.3731C95.0313 52.0135 94.9115 51.539 94.9115 50.9496C94.9115 50.3802 95.0213 49.8808 95.2411 49.4512C95.4709 49.0217 95.7705 48.6621 96.1401 48.3724C96.5197 48.0827 96.9543 47.8679 97.4437 47.7281C97.9332 47.5782 98.4377 47.5033 98.9571 47.5033C99.5565 47.5033 100.136 47.5882 100.695 47.7581C101.255 47.9279 101.759 48.2126 102.209 48.6121L100.605 50.3653Z" fill="white"/>
</g>
<g filter="url(#filter5_d_168_2804)">
<path d="M93.2002 54.2911C93.2002 54.9204 93.1053 55.4998 92.9155 56.0292C92.7257 56.5586 92.441 57.0181 92.0614 57.4077C91.6918 57.7973 91.2273 58.102 90.6679 58.3217C90.1085 58.5415 89.4642 58.6514 88.735 58.6514C87.9958 58.6514 87.3465 58.5415 86.7871 58.3217C86.2277 58.102 85.7582 57.7973 85.3786 57.4077C85.009 57.0181 84.7293 56.5586 84.5395 56.0292C84.3497 55.4998 84.2548 54.9204 84.2548 54.2911V47.7731H86.5923V54.2012C86.5923 54.5308 86.6423 54.8355 86.7421 55.1152C86.852 55.3949 87.0019 55.6396 87.1917 55.8494C87.3815 56.0492 87.6062 56.209 87.8659 56.3289C88.1357 56.4388 88.4253 56.4937 88.735 56.4937C89.0447 56.4937 89.3294 56.4388 89.5891 56.3289C89.8488 56.209 90.0736 56.0492 90.2634 55.8494C90.4532 55.6396 90.598 55.3949 90.6979 55.1152C90.8078 54.8355 90.8627 54.5308 90.8627 54.2012V47.7731H93.2002V54.2911Z" fill="white"/>
</g>
<g filter="url(#filter6_d_168_2804)">
<path d="M76.2967 47.7731H78.6342V56.224H82.9645V58.3817H76.2967V47.7731Z" fill="white"/>
</g>
<g filter="url(#filter7_d_168_2804)">
<path d="M67.4146 47.7731H74.532V49.9308H69.7521V52.0884H74.1723V54.2461H69.7521V58.3817H67.4146V47.7731Z" fill="white"/>
</g>
<g filter="url(#filter8_d_168_2804)">
<path d="M57.6087 47.7731H61.7143C62.2537 47.7731 62.7632 47.828 63.2426 47.9379C63.7321 48.0378 64.1567 48.2126 64.5163 48.4623C64.8859 48.7021 65.1756 49.0317 65.3853 49.4513C65.6051 49.8608 65.715 50.3753 65.715 50.9946C65.715 51.7438 65.5202 52.3831 65.1306 52.9126C64.741 53.432 64.1716 53.7616 63.4225 53.9015L66.1196 58.3817H63.3176L61.0999 54.1412H59.9462V58.3817H57.6087V47.7731ZM59.9462 52.1634H61.3247C61.5345 52.1634 61.7542 52.1584 61.984 52.1484C62.2237 52.1284 62.4385 52.0835 62.6283 52.0135C62.8181 51.9336 62.9729 51.8137 63.0928 51.6539C63.2227 51.4941 63.2876 51.2693 63.2876 50.9796C63.2876 50.7099 63.2327 50.4952 63.1228 50.3353C63.0129 50.1755 62.873 50.0556 62.7032 49.9757C62.5334 49.8858 62.3386 49.8259 62.1189 49.7959C61.8991 49.7659 61.6843 49.751 61.4745 49.751H59.9462V52.1634Z" fill="white"/>
</g>
<g filter="url(#filter9_d_168_2804)">
<path d="M48.2604 47.7731H55.4677V49.9308H50.5979V51.9086H55.198V54.0663H50.5979V56.224H55.7374V58.3817H48.2604V47.7731Z" fill="white"/>
</g>
<g filter="url(#filter10_d_168_2804)">
<path d="M44.8108 50.3653C44.621 50.1255 44.3613 49.9507 44.0317 49.8408C43.712 49.7209 43.4074 49.661 43.1177 49.661C42.9479 49.661 42.773 49.681 42.5932 49.7209C42.4134 49.7609 42.2436 49.8258 42.0838 49.9157C41.924 49.9956 41.7941 50.1055 41.6942 50.2454C41.5943 50.3852 41.5444 50.555 41.5444 50.7548C41.5444 51.0745 41.6642 51.3192 41.904 51.489C42.1437 51.6589 42.4434 51.8037 42.803 51.9236C43.1726 52.0434 43.5672 52.1633 43.9867 52.2832C44.4063 52.4031 44.7959 52.5729 45.1555 52.7926C45.5251 53.0124 45.8298 53.3071 46.0695 53.6767C46.3092 54.0463 46.4291 54.5408 46.4291 55.1601C46.4291 55.7495 46.3192 56.2639 46.0995 56.7034C45.8797 57.143 45.58 57.5076 45.2004 57.7973C44.8308 58.0869 44.3963 58.3017 43.8968 58.4416C43.4074 58.5814 42.8879 58.6513 42.3385 58.6513C41.6492 58.6513 41.0099 58.5465 40.4206 58.3367C39.8312 58.1269 39.2818 57.7873 38.7723 57.3178L40.4356 55.4897C40.6753 55.8094 40.975 56.0591 41.3346 56.2389C41.7042 56.4088 42.0838 56.4937 42.4734 56.4937C42.6632 56.4937 42.853 56.4737 43.0427 56.4337C43.2425 56.3838 43.4173 56.3139 43.5672 56.224C43.727 56.134 43.8519 56.0192 43.9418 55.8793C44.0417 55.7395 44.0916 55.5746 44.0916 55.3849C44.0916 55.0652 43.9668 54.8155 43.717 54.6357C43.4773 54.4459 43.1726 54.286 42.803 54.1562C42.4334 54.0263 42.0338 53.8965 41.6043 53.7666C41.1748 53.6367 40.7752 53.4619 40.4056 53.2422C40.036 53.0224 39.7263 52.7327 39.4766 52.3731C39.2368 52.0135 39.117 51.539 39.117 50.9496C39.117 50.3802 39.2269 49.8808 39.4466 49.4512C39.6764 49.0217 39.976 48.6621 40.3456 48.3724C40.7252 48.0827 41.1598 47.8679 41.6492 47.7281C42.1387 47.5782 42.6432 47.5033 43.1626 47.5033C43.762 47.5033 44.3414 47.5882 44.9007 47.7581C45.4601 47.9279 45.9646 48.2126 46.4141 48.6121L44.8108 50.3653Z" fill="white"/>
</g>
<g filter="url(#filter11_d_168_2804)">
<path d="M36.2068 50.3653C36.017 50.1255 35.7573 49.9507 35.4277 49.8408C35.108 49.7209 34.8033 49.661 34.5136 49.661C34.3438 49.661 34.169 49.681 33.9892 49.7209C33.8094 49.7609 33.6396 49.8258 33.4797 49.9157C33.3199 49.9956 33.1901 50.1055 33.0902 50.2454C32.9903 50.3852 32.9403 50.555 32.9403 50.7548C32.9403 51.0745 33.0602 51.3192 33.2999 51.489C33.5397 51.6589 33.8394 51.8037 34.199 51.9236C34.5686 52.0434 34.9631 52.1633 35.3827 52.2832C35.8022 52.4031 36.1918 52.5729 36.5514 52.7926C36.921 53.0124 37.2257 53.3071 37.4655 53.6767C37.7052 54.0463 37.8251 54.5408 37.8251 55.1601C37.8251 55.7495 37.7152 56.2639 37.4954 56.7034C37.2757 57.143 36.976 57.5076 36.5964 57.7973C36.2268 58.0869 35.7923 58.3017 35.2928 58.4416C34.8033 58.5814 34.2839 58.6513 33.7345 58.6513C33.0452 58.6513 32.4059 58.5465 31.8165 58.3367C31.2272 58.1269 30.6778 57.7873 30.1683 57.3178L31.8315 55.4897C32.0713 55.8094 32.3709 56.0591 32.7305 56.2389C33.1002 56.4088 33.4797 56.4937 33.8693 56.4937C34.0591 56.4937 34.2489 56.4737 34.4387 56.4337C34.6385 56.3838 34.8133 56.3139 34.9631 56.224C35.123 56.134 35.2478 56.0192 35.3377 55.8793C35.4376 55.7395 35.4876 55.5746 35.4876 55.3849C35.4876 55.0652 35.3627 54.8155 35.113 54.6357C34.8732 54.4459 34.5686 54.286 34.199 54.1562C33.8294 54.0263 33.4298 53.8965 33.0003 53.7666C32.5707 53.6367 32.1712 53.4619 31.8015 53.2422C31.4319 53.0224 31.1223 52.7327 30.8725 52.3731C30.6328 52.0135 30.5129 51.539 30.5129 50.9496C30.5129 50.3802 30.6228 49.8808 30.8426 49.4512C31.0723 49.0217 31.372 48.6621 31.7416 48.3724C32.1212 48.0827 32.5557 47.8679 33.0452 47.7281C33.5347 47.5782 34.0391 47.5033 34.5586 47.5033C35.1579 47.5033 35.7373 47.5882 36.2967 47.7581C36.8561 47.9279 37.3606 48.2126 37.8101 48.6121L36.2068 50.3653Z" fill="white"/>
</g>
<g filter="url(#filter12_d_168_2804)">
<path d="M23.3475 47.7731H25.2804L29.8954 58.3817H27.2583L26.3442 56.1341H22.2237L21.3396 58.3817H18.7624L23.3475 47.7731ZM24.2465 50.8598L22.9579 54.1562H25.5501L24.2465 50.8598Z" fill="white"/>
</g>
<g filter="url(#filter13_d_168_2804)">
<path d="M4.14404 47.7731H6.6913L8.38448 54.5758H8.41445L10.6321 47.7731H12.8047L15.0074 54.7556H15.0373L16.8204 47.7731H19.1879L16.0862 58.3817H14.0034L11.666 51.0396H11.636L9.2985 58.3817H7.29066L4.14404 47.7731Z" fill="white"/>
</g>
<path fill-rule="evenodd" clip-rule="evenodd" d="M111.663 41.7329L4.00115 41.7885L4 39.5687L111.662 39.513L111.663 41.7329Z" fill="white"/>
<path fill-rule="evenodd" clip-rule="evenodd" d="M111.663 13.43H93.3495V12.3201H111.663V13.43Z" fill="white"/>
<defs>
<filter id="filter0_d_168_2804" x="102.069" y="0.665955" width="12.8698" height="14.0629" filterUnits="userSpaceOnUse" color-interpolation-filters="sRGB">
<feFlood flood-opacity="0" result="BackgroundImageFix"/>
<feColorMatrix in="SourceAlpha" type="matrix" values="0 0 0 0 0 0 0 0 0 0 0 0 0 0 0 0 0 0 127 0" result="hardAlpha"/>
<feOffset dy="4"/>
<feGaussianBlur stdDeviation="2"/>
<feComposite in2="hardAlpha" operator="out"/>
<feColorMatrix type="matrix" values="0 0 0 0 0 0 0 0 0 0 0 0 0 0 0 0 0 0 0.25 0"/>
<feBlend mode="normal" in2="BackgroundImageFix" result="effect1_dropShadow_168_2804"/>
<feBlend mode="normal" in="SourceGraphic" in2="effect1_dropShadow_168_2804" result="shape"/>
</filter>
<filter id="filter1_d_168_2804" x="89.7302" y="0.83247" width="19.0992" height="17.8228" filterUnits="userSpaceOnUse" color-interpolation-filters="sRGB">
<feFlood flood-opacity="0" result="BackgroundImageFix"/>
<feColorMatrix in="SourceAlpha" type="matrix" values="0 0 0 0 0 0 0 0 0 0 0 0 0 0 0 0 0 0 127 0" result="hardAlpha"/>
<feOffset dy="4"/>
<feGaussianBlur stdDeviation="2"/>
<feComposite in2="hardAlpha" operator="out"/>
<feColorMatrix type="matrix" values="0 0 0 0 0 0 0 0 0 0 0 0 0 0 0 0 0 0 0.25 0"/>
<feBlend mode="normal" in2="BackgroundImageFix" result="effect1_dropShadow_168_2804"/>
<feBlend mode="normal" in="SourceGraphic" in2="effect1_dropShadow_168_2804" result="shape"/>
</filter>
<filter id="filter2_d_168_2804" x="94.7866" y="15.5666" width="15.0896" height="18.3222" filterUnits="userSpaceOnUse" color-interpolation-filters="sRGB">
<feFlood flood-opacity="0" result="BackgroundImageFix"/>
<feColorMatrix in="SourceAlpha" type="matrix" values="0 0 0 0 0 0 0 0 0 0 0 0 0 0 0 0 0 0 127 0" result="hardAlpha"/>
<feOffset dy="4"/>
<feGaussianBlur stdDeviation="2"/>
<feComposite in2="hardAlpha" operator="out"/>
<feColorMatrix type="matrix" values="0 0 0 0 0 0 0 0 0 0 0 0 0 0 0 0 0 0 0.25 0"/>
<feBlend mode="normal" in2="BackgroundImageFix" result="effect1_dropShadow_168_2804"/>
<feBlend mode="normal" in="SourceGraphic" in2="effect1_dropShadow_168_2804" result="shape"/>
</filter>
<filter id="filter3_d_168_2804" x="99.1709" y="47.5033" width="15.6567" height="19.148" filterUnits="userSpaceOnUse" color-interpolation-filters="sRGB">
<feFlood flood-opacity="0" result="BackgroundImageFix"/>
<feColorMatrix in="SourceAlpha" type="matrix" values="0 0 0 0 0 0 0 0 0 0 0 0 0 0 0 0 0 0 127 0" result="hardAlpha"/>
<feOffset dy="4"/>
<feGaussianBlur stdDeviation="2"/>
<feComposite in2="hardAlpha" operator="out"/>
<feColorMatrix type="matrix" values="0 0 0 0 0 0 0 0 0 0 0 0 0 0 0 0 0 0 0.25 0"/>
<feBlend mode="normal" in2="BackgroundImageFix" result="effect1_dropShadow_168_2804"/>
<feBlend mode="normal" in="SourceGraphic" in2="effect1_dropShadow_168_2804" result="shape"/>
</filter>
<filter id="filter4_d_168_2804" x="90.5668" y="47.5033" width="15.6567" height="19.148" filterUnits="userSpaceOnUse" color-interpolation-filters="sRGB">
<feFlood flood-opacity="0" result="BackgroundImageFix"/>
<feColorMatrix in="SourceAlpha" type="matrix" values="0 0 0 0 0 0 0 0 0 0 0 0 0 0 0 0 0 0 127 0" result="hardAlpha"/>
<feOffset dy="4"/>
<feGaussianBlur stdDeviation="2"/>
<feComposite in2="hardAlpha" operator="out"/>
<feColorMatrix type="matrix" values="0 0 0 0 0 0 0 0 0 0 0 0 0 0 0 0 0 0 0.25 0"/>
<feBlend mode="normal" in2="BackgroundImageFix" result="effect1_dropShadow_168_2804"/>
<feBlend mode="normal" in="SourceGraphic" in2="effect1_dropShadow_168_2804" result="shape"/>
</filter>
<filter id="filter5_d_168_2804" x="80.2548" y="47.7731" width="16.9454" height="18.8783" filterUnits="userSpaceOnUse" color-interpolation-filters="sRGB">
<feFlood flood-opacity="0" result="BackgroundImageFix"/>
<feColorMatrix in="SourceAlpha" type="matrix" values="0 0 0 0 0 0 0 0 0 0 0 0 0 0 0 0 0 0 127 0" result="hardAlpha"/>
<feOffset dy="4"/>
<feGaussianBlur stdDeviation="2"/>
<feComposite in2="hardAlpha" operator="out"/>
<feColorMatrix type="matrix" values="0 0 0 0 0 0 0 0 0 0 0 0 0 0 0 0 0 0 0.25 0"/>
<feBlend mode="normal" in2="BackgroundImageFix" result="effect1_dropShadow_168_2804"/>
<feBlend mode="normal" in="SourceGraphic" in2="effect1_dropShadow_168_2804" result="shape"/>
</filter>
<filter id="filter6_d_168_2804" x="72.2967" y="47.7731" width="14.6678" height="18.6086" filterUnits="userSpaceOnUse" color-interpolation-filters="sRGB">
<feFlood flood-opacity="0" result="BackgroundImageFix"/>
<feColorMatrix in="SourceAlpha" type="matrix" values="0 0 0 0 0 0 0 0 0 0 0 0 0 0 0 0 0 0 127 0" result="hardAlpha"/>
<feOffset dy="4"/>
<feGaussianBlur stdDeviation="2"/>
<feComposite in2="hardAlpha" operator="out"/>
<feColorMatrix type="matrix" values="0 0 0 0 0 0 0 0 0 0 0 0 0 0 0 0 0 0 0.25 0"/>
<feBlend mode="normal" in2="BackgroundImageFix" result="effect1_dropShadow_168_2804"/>
<feBlend mode="normal" in="SourceGraphic" in2="effect1_dropShadow_168_2804" result="shape"/>
</filter>
<filter id="filter7_d_168_2804" x="63.4146" y="47.7731" width="15.1174" height="18.6086" filterUnits="userSpaceOnUse" color-interpolation-filters="sRGB">
<feFlood flood-opacity="0" result="BackgroundImageFix"/>
<feColorMatrix in="SourceAlpha" type="matrix" values="0 0 0 0 0 0 0 0 0 0 0 0 0 0 0 0 0 0 127 0" result="hardAlpha"/>
<feOffset dy="4"/>
<feGaussianBlur stdDeviation="2"/>
<feComposite in2="hardAlpha" operator="out"/>
<feColorMatrix type="matrix" values="0 0 0 0 0 0 0 0 0 0 0 0 0 0 0 0 0 0 0.25 0"/>
<feBlend mode="normal" in2="BackgroundImageFix" result="effect1_dropShadow_168_2804"/>
<feBlend mode="normal" in="SourceGraphic" in2="effect1_dropShadow_168_2804" result="shape"/>
</filter>
<filter id="filter8_d_168_2804" x="53.6087" y="47.7731" width="16.5109" height="18.6086" filterUnits="userSpaceOnUse" color-interpolation-filters="sRGB">
<feFlood flood-opacity="0" result="BackgroundImageFix"/>
<feColorMatrix in="SourceAlpha" type="matrix" values="0 0 0 0 0 0 0 0 0 0 0 0 0 0 0 0 0 0 127 0" result="hardAlpha"/>
<feOffset dy="4"/>
<feGaussianBlur stdDeviation="2"/>
<feComposite in2="hardAlpha" operator="out"/>
<feColorMatrix type="matrix" values="0 0 0 0 0 0 0 0 0 0 0 0 0 0 0 0 0 0 0.25 0"/>
<feBlend mode="normal" in2="BackgroundImageFix" result="effect1_dropShadow_168_2804"/>
<feBlend mode="normal" in="SourceGraphic" in2="effect1_dropShadow_168_2804" result="shape"/>
</filter>
<filter id="filter9_d_168_2804" x="44.2604" y="47.7731" width="15.477" height="18.6086" filterUnits="userSpaceOnUse" color-interpolation-filters="sRGB">
<feFlood flood-opacity="0" result="BackgroundImageFix"/>
<feColorMatrix in="SourceAlpha" type="matrix" values="0 0 0 0 0 0 0 0 0 0 0 0 0 0 0 0 0 0 127 0" result="hardAlpha"/>
<feOffset dy="4"/>
<feGaussianBlur stdDeviation="2"/>
<feComposite in2="hardAlpha" operator="out"/>
<feColorMatrix type="matrix" values="0 0 0 0 0 0 0 0 0 0 0 0 0 0 0 0 0 0 0.25 0"/>
<feBlend mode="normal" in2="BackgroundImageFix" result="effect1_dropShadow_168_2804"/>
<feBlend mode="normal" in="SourceGraphic" in2="effect1_dropShadow_168_2804" result="shape"/>
</filter>
<filter id="filter10_d_168_2804" x="34.7723" y="47.5033" width="15.6567" height="19.148" filterUnits="userSpaceOnUse" color-interpolation-filters="sRGB">
<feFlood flood-opacity="0" result="BackgroundImageFix"/>
<feColorMatrix in="SourceAlpha" type="matrix" values="0 0 0 0 0 0 0 0 0 0 0 0 0 0 0 0 0 0 127 0" result="hardAlpha"/>
<feOffset dy="4"/>
<feGaussianBlur stdDeviation="2"/>
<feComposite in2="hardAlpha" operator="out"/>
<feColorMatrix type="matrix" values="0 0 0 0 0 0 0 0 0 0 0 0 0 0 0 0 0 0 0.25 0"/>
<feBlend mode="normal" in2="BackgroundImageFix" result="effect1_dropShadow_168_2804"/>
<feBlend mode="normal" in="SourceGraphic" in2="effect1_dropShadow_168_2804" result="shape"/>
</filter>
<filter id="filter11_d_168_2804" x="26.1683" y="47.5033" width="15.6568" height="19.148" filterUnits="userSpaceOnUse" color-interpolation-filters="sRGB">
<feFlood flood-opacity="0" result="BackgroundImageFix"/>
<feColorMatrix in="SourceAlpha" type="matrix" values="0 0 0 0 0 0 0 0 0 0 0 0 0 0 0 0 0 0 127 0" result="hardAlpha"/>
<feOffset dy="4"/>
<feGaussianBlur stdDeviation="2"/>
<feComposite in2="hardAlpha" operator="out"/>
<feColorMatrix type="matrix" values="0 0 0 0 0 0 0 0 0 0 0 0 0 0 0 0 0 0 0.25 0"/>
<feBlend mode="normal" in2="BackgroundImageFix" result="effect1_dropShadow_168_2804"/>
<feBlend mode="normal" in="SourceGraphic" in2="effect1_dropShadow_168_2804" result="shape"/>
</filter>
<filter id="filter12_d_168_2804" x="14.7624" y="47.7731" width="19.133" height="18.6086" filterUnits="userSpaceOnUse" color-interpolation-filters="sRGB">
<feFlood flood-opacity="0" result="BackgroundImageFix"/>
<feColorMatrix in="SourceAlpha" type="matrix" values="0 0 0 0 0 0 0 0 0 0 0 0 0 0 0 0 0 0 127 0" result="hardAlpha"/>
<feOffset dy="4"/>
<feGaussianBlur stdDeviation="2"/>
<feComposite in2="hardAlpha" operator="out"/>
<feColorMatrix type="matrix" values="0 0 0 0 0 0 0 0 0 0 0 0 0 0 0 0 0 0 0.25 0"/>
<feBlend mode="normal" in2="BackgroundImageFix" result="effect1_dropShadow_168_2804"/>
<feBlend mode="normal" in="SourceGraphic" in2="effect1_dropShadow_168_2804" result="shape"/>
</filter>
<filter id="filter13_d_168_2804" x="0.144043" y="47.7731" width="23.0438" height="18.6086" filterUnits="userSpaceOnUse" color-interpolation-filters="sRGB">
<feFlood flood-opacity="0" result="BackgroundImageFix"/>
<feColorMatrix in="SourceAlpha" type="matrix" values="0 0 0 0 0 0 0 0 0 0 0 0 0 0 0 0 0 0 127 0" result="hardAlpha"/>
<feOffset dy="4"/>
<feGaussianBlur stdDeviation="2"/>
<feComposite in2="hardAlpha" operator="out"/>
<feColorMatrix type="matrix" values="0 0 0 0 0 0 0 0 0 0 0 0 0 0 0 0 0 0 0.25 0"/>
<feBlend mode="normal" in2="BackgroundImageFix" result="effect1_dropShadow_168_2804"/>
<feBlend mode="normal" in="SourceGraphic" in2="effect1_dropShadow_168_2804" result="shape"/>
</filter>
</defs>
</svg>
