<svg width="119" height="25" viewBox="0 0 119 25" fill="none" xmlns="http://www.w3.org/2000/svg">
<g filter="url(#filter0_d_168_2805)">
<path d="M108.931 9.00005H111.744C112.114 9.00005 112.463 9.03769 112.791 9.11298C113.127 9.18142 113.418 9.3012 113.664 9.47232C113.917 9.63658 114.116 9.86245 114.26 10.1499C114.41 10.4305 114.485 10.783 114.485 11.2074C114.485 11.7207 114.352 12.1588 114.085 12.5215C113.818 12.8775 113.428 13.1033 112.915 13.1991L114.763 16.2689H112.843L111.323 13.3634H110.533V16.2689H108.931V9.00005ZM110.533 12.0082H111.477C111.621 12.0082 111.772 12.0048 111.929 11.9979C112.093 11.9842 112.24 11.9534 112.37 11.9055C112.5 11.8508 112.607 11.7686 112.689 11.6591C112.778 11.5496 112.822 11.3956 112.822 11.1971C112.822 11.0123 112.785 10.8652 112.709 10.7557C112.634 10.6461 112.538 10.564 112.422 10.5093C112.305 10.4477 112.172 10.4066 112.021 10.3861C111.871 10.3655 111.724 10.3553 111.58 10.3553H110.533V12.0082Z" fill="white"/>
</g>
<g filter="url(#filter1_d_168_2805)">
<path d="M107.451 13.4661C107.451 13.8973 107.386 14.2943 107.255 14.657C107.125 15.0198 106.93 15.3346 106.67 15.6016C106.417 15.8685 106.099 16.0773 105.715 16.2278C105.332 16.3784 104.891 16.4537 104.391 16.4537C103.885 16.4537 103.44 16.3784 103.056 16.2278C102.673 16.0773 102.351 15.8685 102.091 15.6016C101.838 15.3346 101.646 15.0198 101.516 14.657C101.386 14.2943 101.321 13.8973 101.321 13.4661V9.00005H102.923V13.4045C102.923 13.6303 102.957 13.8391 103.026 14.0307C103.101 14.2224 103.204 14.3901 103.334 14.5338C103.464 14.6707 103.618 14.7802 103.796 14.8624C103.98 14.9376 104.179 14.9753 104.391 14.9753C104.603 14.9753 104.798 14.9376 104.976 14.8624C105.154 14.7802 105.308 14.6707 105.438 14.5338C105.568 14.3901 105.668 14.2224 105.736 14.0307C105.811 13.8391 105.849 13.6303 105.849 13.4045V9.00005H107.451V13.4661Z" fill="white"/>
</g>
<g filter="url(#filter2_d_168_2805)">
<path d="M96.8324 10.4169H94.7585V9.00005H100.508V10.4169H98.434V16.2689H96.8324V10.4169Z" fill="white"/>
</g>
<g filter="url(#filter3_d_168_2805)">
<path d="M91.1507 9.00005H92.4751L95.6372 16.2689H93.8303L93.204 14.7289H90.3806L89.7749 16.2689H88.009L91.1507 9.00005ZM91.7667 11.115L90.8837 13.3737H92.6599L91.7667 11.115Z" fill="white"/>
</g>
<g filter="url(#filter4_d_168_2805)">
<path d="M82.1012 9.00005H84.9143C85.2839 9.00005 85.633 9.03769 85.9615 9.11298C86.2969 9.18142 86.5878 9.3012 86.8342 9.47232C87.0874 9.63658 87.2859 9.86245 87.4296 10.1499C87.5802 10.4305 87.6555 10.783 87.6555 11.2074C87.6555 11.7207 87.522 12.1588 87.2551 12.5215C86.9882 12.8775 86.598 13.1033 86.0847 13.1991L87.9327 16.2689H86.0128L84.4933 13.3634H83.7028V16.2689H82.1012V9.00005ZM83.7028 12.0082H84.6473C84.7911 12.0082 84.9417 12.0048 85.0991 11.9979C85.2633 11.9842 85.4105 11.9534 85.5406 11.9055C85.6706 11.8508 85.7767 11.7686 85.8588 11.6591C85.9478 11.5496 85.9923 11.3956 85.9923 11.1971C85.9923 11.0123 85.9546 10.8652 85.8794 10.7557C85.8041 10.6461 85.7082 10.564 85.5919 10.5093C85.4755 10.4477 85.3421 10.4066 85.1915 10.3861C85.0409 10.3655 84.8937 10.3553 84.75 10.3553H83.7028V12.0082Z" fill="white"/>
</g>
<g filter="url(#filter5_d_168_2805)">
<path d="M75.6959 9.00005H80.6342V10.4785H77.2975V11.8337H80.4494V13.3121H77.2975V14.7905H80.819V16.2689H75.6959V9.00005Z" fill="white"/>
</g>
<g filter="url(#filter6_d_168_2805)">
<path d="M69.1675 9.00005H71.8677C72.2441 9.00005 72.6001 9.03427 72.9354 9.10271C73.2708 9.17116 73.5617 9.29094 73.8081 9.46205C74.0614 9.62632 74.2598 9.85218 74.4036 10.1397C74.5542 10.4203 74.6294 10.7762 74.6294 11.2074C74.6294 11.6318 74.561 11.9877 74.4241 12.2751C74.2872 12.5626 74.099 12.7919 73.8594 12.963C73.6199 13.1341 73.3358 13.2573 73.0073 13.3326C72.6788 13.4011 72.3229 13.4353 71.9396 13.4353H70.7692V16.2689H69.1675V9.00005ZM70.7692 12.0801H71.8369C71.9806 12.0801 72.1175 12.0664 72.2476 12.039C72.3845 12.0116 72.5042 11.9671 72.6069 11.9055C72.7164 11.8371 72.802 11.7481 72.8636 11.6386C72.932 11.5222 72.9662 11.3785 72.9662 11.2074C72.9662 11.0226 72.9217 10.8754 72.8328 10.7659C72.7506 10.6496 72.6411 10.5606 72.5042 10.499C72.3742 10.4374 72.227 10.3997 72.0628 10.3861C71.8985 10.3655 71.7411 10.3553 71.5905 10.3553H70.7692V12.0801Z" fill="white"/>
</g>
<g filter="url(#filter7_d_168_2805)">
<path d="M59.4723 9.00005H61.8952L63.5687 13.7433H63.5893L65.273 9.00005H67.6857V16.2689H66.0841V10.6941H66.0635L64.1539 16.2689H62.9322L61.0944 10.6941H61.0739V16.2689H59.4723V9.00005Z" fill="white"/>
</g>
<g filter="url(#filter8_d_168_2805)">
<path d="M53.0671 9.00005H58.0054V10.4785H54.6687V11.8337H57.8206V13.3121H54.6687V14.7905H58.1902V16.2689H53.0671V9.00005Z" fill="white"/>
</g>
<g filter="url(#filter9_d_168_2805)">
<path d="M48.5166 10.4169H46.4427V9.00005H52.1921V10.4169H50.1182V16.2689H48.5166V10.4169Z" fill="white"/>
</g>
<g filter="url(#filter10_d_168_2805)">
<path d="M40.6332 9.00005H43.4463C43.8159 9.00005 44.165 9.03769 44.4935 9.11298C44.8289 9.18142 45.1198 9.3012 45.3662 9.47232C45.6195 9.63658 45.8179 9.86245 45.9617 10.1499C46.1123 10.4305 46.1875 10.783 46.1875 11.2074C46.1875 11.7207 46.0541 12.1588 45.7871 12.5215C45.5202 12.8775 45.1301 13.1033 44.6167 13.1991L46.4647 16.2689H44.5449L43.0254 13.3634H42.2349V16.2689H40.6332V9.00005ZM42.2349 12.0082H43.1794C43.3231 12.0082 43.4737 12.0048 43.6311 11.9979C43.7954 11.9842 43.9426 11.9534 44.0726 11.9055C44.2026 11.8508 44.3087 11.7686 44.3909 11.6591C44.4798 11.5496 44.5243 11.3956 44.5243 11.1971C44.5243 11.0123 44.4867 10.8652 44.4114 10.7557C44.3361 10.6461 44.2403 10.564 44.1239 10.5093C44.0076 10.4477 43.8741 10.4066 43.7235 10.3861C43.5729 10.3655 43.4258 10.3553 43.2821 10.3553H42.2349V12.0082Z" fill="white"/>
</g>
<g filter="url(#filter11_d_168_2805)">
<path d="M34.228 9.00005H39.1663V10.4785H35.8296V11.8337H38.9815V13.3121H35.8296V14.7905H39.3511V16.2689H34.228V9.00005Z" fill="white"/>
</g>
<g filter="url(#filter12_d_168_2805)">
<path d="M31.8644 10.7762C31.7343 10.6119 31.5564 10.4921 31.3305 10.4169C31.1115 10.3347 30.9027 10.2937 30.7043 10.2937C30.5879 10.2937 30.4681 10.3073 30.3449 10.3347C30.2217 10.3621 30.1054 10.4066 29.9958 10.4682C29.8863 10.5229 29.7974 10.5982 29.7289 10.6941C29.6605 10.7899 29.6262 10.9062 29.6262 11.0431C29.6262 11.2621 29.7084 11.4298 29.8726 11.5462C30.0369 11.6626 30.2422 11.7618 30.4886 11.8439C30.7419 11.9261 31.0123 12.0082 31.2997 12.0903C31.5872 12.1725 31.8541 12.2888 32.1005 12.4394C32.3538 12.59 32.5625 12.7919 32.7268 13.0451C32.8911 13.2984 32.9732 13.6372 32.9732 14.0615C32.9732 14.4654 32.8979 14.8179 32.7473 15.119C32.5968 15.4202 32.3914 15.67 32.1313 15.8685C31.8781 16.067 31.5803 16.2141 31.2381 16.31C30.9027 16.4058 30.5468 16.4537 30.1704 16.4537C29.6981 16.4537 29.2601 16.3818 28.8562 16.2381C28.4524 16.0944 28.076 15.8616 27.7269 15.54L28.8665 14.2874C29.0308 14.5064 29.2361 14.6775 29.4825 14.8008C29.7358 14.9171 29.9958 14.9753 30.2628 14.9753C30.3928 14.9753 30.5229 14.9616 30.6529 14.9342C30.7898 14.9 30.9096 14.8521 31.0123 14.7905C31.1218 14.7289 31.2073 14.6502 31.2689 14.5543C31.3374 14.4585 31.3716 14.3456 31.3716 14.2155C31.3716 13.9965 31.286 13.8254 31.1149 13.7022C30.9507 13.5722 30.7419 13.4627 30.4886 13.3737C30.2354 13.2847 29.9616 13.1957 29.6673 13.1067C29.373 13.0178 29.0992 12.898 28.846 12.7474C28.5927 12.5968 28.3805 12.3983 28.2094 12.1519C28.0452 11.9055 27.963 11.5804 27.963 11.1766C27.963 10.7865 28.0383 10.4442 28.1889 10.1499C28.3463 9.85561 28.5517 9.6092 28.8049 9.41071C29.065 9.21222 29.3627 9.06507 29.6981 8.96924C30.0335 8.86658 30.3791 8.81524 30.7351 8.81524C31.1457 8.81524 31.5427 8.87342 31.926 8.98978C32.3093 9.10613 32.6549 9.3012 32.9629 9.57498L31.8644 10.7762Z" fill="white"/>
</g>
<g filter="url(#filter13_d_168_2805)">
<path d="M25.969 10.7762C25.839 10.6119 25.661 10.4921 25.4352 10.4169C25.2161 10.3347 25.0074 10.2937 24.8089 10.2937C24.6925 10.2937 24.5728 10.3073 24.4496 10.3347C24.3264 10.3621 24.21 10.4066 24.1005 10.4682C23.991 10.5229 23.902 10.5982 23.8336 10.6941C23.7651 10.7899 23.7309 10.9062 23.7309 11.0431C23.7309 11.2621 23.813 11.4298 23.9773 11.5462C24.1416 11.6626 24.3469 11.7618 24.5933 11.8439C24.8465 11.9261 25.1169 12.0082 25.4044 12.0903C25.6918 12.1725 25.9588 12.2888 26.2052 12.4394C26.4584 12.59 26.6672 12.7919 26.8314 13.0451C26.9957 13.2984 27.0778 13.6372 27.0778 14.0615C27.0778 14.4654 27.0026 14.8179 26.852 15.119C26.7014 15.4202 26.4961 15.67 26.236 15.8685C25.9827 16.067 25.685 16.2141 25.3428 16.31C25.0074 16.4058 24.6515 16.4537 24.275 16.4537C23.8028 16.4537 23.3647 16.3818 22.9609 16.2381C22.5571 16.0944 22.1806 15.8616 21.8315 15.54L22.9711 14.2874C23.1354 14.5064 23.3408 14.6775 23.5872 14.8008C23.8404 14.9171 24.1005 14.9753 24.3674 14.9753C24.4975 14.9753 24.6275 14.9616 24.7576 14.9342C24.8945 14.9 25.0142 14.8521 25.1169 14.7905C25.2264 14.7289 25.312 14.6502 25.3736 14.5543C25.442 14.4585 25.4762 14.3456 25.4762 14.2155C25.4762 13.9965 25.3907 13.8254 25.2196 13.7022C25.0553 13.5722 24.8465 13.4627 24.5933 13.3737C24.34 13.2847 24.0663 13.1957 23.772 13.1067C23.4776 13.0178 23.2039 12.898 22.9506 12.7474C22.6974 12.5968 22.4852 12.3983 22.3141 12.1519C22.1498 11.9055 22.0677 11.5804 22.0677 11.1766C22.0677 10.7865 22.143 10.4442 22.2935 10.1499C22.451 9.85561 22.6563 9.6092 22.9095 9.41071C23.1696 9.21222 23.4674 9.06507 23.8028 8.96924C24.1381 8.86658 24.4838 8.81524 24.8397 8.81524C25.2504 8.81524 25.6473 8.87342 26.0306 8.98978C26.4139 9.10613 26.7596 9.3012 27.0676 9.57498L25.969 10.7762Z" fill="white"/>
</g>
<g filter="url(#filter14_d_168_2805)">
<path d="M17.1579 9.00005H18.4824L21.6445 16.2689H19.8376L19.2113 14.7289H16.3879L15.7822 16.2689H14.0163L17.1579 9.00005ZM17.774 11.115L16.891 13.3737H18.6672L17.774 11.115Z" fill="white"/>
</g>
<g filter="url(#filter15_d_168_2805)">
<path d="M3.99997 9.00005H5.74532L6.90546 13.6611H6.92599L8.44547 9.00005H9.93415L11.4434 13.7843H11.4639L12.6856 9.00005H14.3078L12.1826 16.2689H10.7555L9.15387 11.2382H9.13334L7.53173 16.2689H6.15598L3.99997 9.00005Z" fill="white"/>
</g>
<path fill-rule="evenodd" clip-rule="evenodd" d="M114.931 2.94936L5.60395 3.00555L5.60281 0.785717L114.93 0.729529L114.931 2.94936Z" fill="white"/>
<defs>
<filter id="filter0_d_168_2805" x="104.931" y="9.00005" width="13.8315" height="15.2689" filterUnits="userSpaceOnUse" color-interpolation-filters="sRGB">
<feFlood flood-opacity="0" result="BackgroundImageFix"/>
<feColorMatrix in="SourceAlpha" type="matrix" values="0 0 0 0 0 0 0 0 0 0 0 0 0 0 0 0 0 0 127 0" result="hardAlpha"/>
<feOffset dy="4"/>
<feGaussianBlur stdDeviation="2"/>
<feComposite in2="hardAlpha" operator="out"/>
<feColorMatrix type="matrix" values="0 0 0 0 0 0 0 0 0 0 0 0 0 0 0 0 0 0 0.25 0"/>
<feBlend mode="normal" in2="BackgroundImageFix" result="effect1_dropShadow_168_2805"/>
<feBlend mode="normal" in="SourceGraphic" in2="effect1_dropShadow_168_2805" result="shape"/>
</filter>
<filter id="filter1_d_168_2805" x="97.3213" y="9.00005" width="14.1292" height="15.4537" filterUnits="userSpaceOnUse" color-interpolation-filters="sRGB">
<feFlood flood-opacity="0" result="BackgroundImageFix"/>
<feColorMatrix in="SourceAlpha" type="matrix" values="0 0 0 0 0 0 0 0 0 0 0 0 0 0 0 0 0 0 127 0" result="hardAlpha"/>
<feOffset dy="4"/>
<feGaussianBlur stdDeviation="2"/>
<feComposite in2="hardAlpha" operator="out"/>
<feColorMatrix type="matrix" values="0 0 0 0 0 0 0 0 0 0 0 0 0 0 0 0 0 0 0.25 0"/>
<feBlend mode="normal" in2="BackgroundImageFix" result="effect1_dropShadow_168_2805"/>
<feBlend mode="normal" in="SourceGraphic" in2="effect1_dropShadow_168_2805" result="shape"/>
</filter>
<filter id="filter2_d_168_2805" x="90.7585" y="9.00005" width="13.7494" height="15.2689" filterUnits="userSpaceOnUse" color-interpolation-filters="sRGB">
<feFlood flood-opacity="0" result="BackgroundImageFix"/>
<feColorMatrix in="SourceAlpha" type="matrix" values="0 0 0 0 0 0 0 0 0 0 0 0 0 0 0 0 0 0 127 0" result="hardAlpha"/>
<feOffset dy="4"/>
<feGaussianBlur stdDeviation="2"/>
<feComposite in2="hardAlpha" operator="out"/>
<feColorMatrix type="matrix" values="0 0 0 0 0 0 0 0 0 0 0 0 0 0 0 0 0 0 0.25 0"/>
<feBlend mode="normal" in2="BackgroundImageFix" result="effect1_dropShadow_168_2805"/>
<feBlend mode="normal" in="SourceGraphic" in2="effect1_dropShadow_168_2805" result="shape"/>
</filter>
<filter id="filter3_d_168_2805" x="84.009" y="9.00005" width="15.6282" height="15.2689" filterUnits="userSpaceOnUse" color-interpolation-filters="sRGB">
<feFlood flood-opacity="0" result="BackgroundImageFix"/>
<feColorMatrix in="SourceAlpha" type="matrix" values="0 0 0 0 0 0 0 0 0 0 0 0 0 0 0 0 0 0 127 0" result="hardAlpha"/>
<feOffset dy="4"/>
<feGaussianBlur stdDeviation="2"/>
<feComposite in2="hardAlpha" operator="out"/>
<feColorMatrix type="matrix" values="0 0 0 0 0 0 0 0 0 0 0 0 0 0 0 0 0 0 0.25 0"/>
<feBlend mode="normal" in2="BackgroundImageFix" result="effect1_dropShadow_168_2805"/>
<feBlend mode="normal" in="SourceGraphic" in2="effect1_dropShadow_168_2805" result="shape"/>
</filter>
<filter id="filter4_d_168_2805" x="78.1012" y="9.00005" width="13.8315" height="15.2689" filterUnits="userSpaceOnUse" color-interpolation-filters="sRGB">
<feFlood flood-opacity="0" result="BackgroundImageFix"/>
<feColorMatrix in="SourceAlpha" type="matrix" values="0 0 0 0 0 0 0 0 0 0 0 0 0 0 0 0 0 0 127 0" result="hardAlpha"/>
<feOffset dy="4"/>
<feGaussianBlur stdDeviation="2"/>
<feComposite in2="hardAlpha" operator="out"/>
<feColorMatrix type="matrix" values="0 0 0 0 0 0 0 0 0 0 0 0 0 0 0 0 0 0 0.25 0"/>
<feBlend mode="normal" in2="BackgroundImageFix" result="effect1_dropShadow_168_2805"/>
<feBlend mode="normal" in="SourceGraphic" in2="effect1_dropShadow_168_2805" result="shape"/>
</filter>
<filter id="filter5_d_168_2805" x="71.6959" y="9.00005" width="13.1231" height="15.2689" filterUnits="userSpaceOnUse" color-interpolation-filters="sRGB">
<feFlood flood-opacity="0" result="BackgroundImageFix"/>
<feColorMatrix in="SourceAlpha" type="matrix" values="0 0 0 0 0 0 0 0 0 0 0 0 0 0 0 0 0 0 127 0" result="hardAlpha"/>
<feOffset dy="4"/>
<feGaussianBlur stdDeviation="2"/>
<feComposite in2="hardAlpha" operator="out"/>
<feColorMatrix type="matrix" values="0 0 0 0 0 0 0 0 0 0 0 0 0 0 0 0 0 0 0.25 0"/>
<feBlend mode="normal" in2="BackgroundImageFix" result="effect1_dropShadow_168_2805"/>
<feBlend mode="normal" in="SourceGraphic" in2="effect1_dropShadow_168_2805" result="shape"/>
</filter>
<filter id="filter6_d_168_2805" x="65.1675" y="9.00005" width="13.4619" height="15.2689" filterUnits="userSpaceOnUse" color-interpolation-filters="sRGB">
<feFlood flood-opacity="0" result="BackgroundImageFix"/>
<feColorMatrix in="SourceAlpha" type="matrix" values="0 0 0 0 0 0 0 0 0 0 0 0 0 0 0 0 0 0 127 0" result="hardAlpha"/>
<feOffset dy="4"/>
<feGaussianBlur stdDeviation="2"/>
<feComposite in2="hardAlpha" operator="out"/>
<feColorMatrix type="matrix" values="0 0 0 0 0 0 0 0 0 0 0 0 0 0 0 0 0 0 0.25 0"/>
<feBlend mode="normal" in2="BackgroundImageFix" result="effect1_dropShadow_168_2805"/>
<feBlend mode="normal" in="SourceGraphic" in2="effect1_dropShadow_168_2805" result="shape"/>
</filter>
<filter id="filter7_d_168_2805" x="55.4723" y="9.00005" width="16.2134" height="15.2689" filterUnits="userSpaceOnUse" color-interpolation-filters="sRGB">
<feFlood flood-opacity="0" result="BackgroundImageFix"/>
<feColorMatrix in="SourceAlpha" type="matrix" values="0 0 0 0 0 0 0 0 0 0 0 0 0 0 0 0 0 0 127 0" result="hardAlpha"/>
<feOffset dy="4"/>
<feGaussianBlur stdDeviation="2"/>
<feComposite in2="hardAlpha" operator="out"/>
<feColorMatrix type="matrix" values="0 0 0 0 0 0 0 0 0 0 0 0 0 0 0 0 0 0 0.25 0"/>
<feBlend mode="normal" in2="BackgroundImageFix" result="effect1_dropShadow_168_2805"/>
<feBlend mode="normal" in="SourceGraphic" in2="effect1_dropShadow_168_2805" result="shape"/>
</filter>
<filter id="filter8_d_168_2805" x="49.0671" y="9.00005" width="13.1231" height="15.2689" filterUnits="userSpaceOnUse" color-interpolation-filters="sRGB">
<feFlood flood-opacity="0" result="BackgroundImageFix"/>
<feColorMatrix in="SourceAlpha" type="matrix" values="0 0 0 0 0 0 0 0 0 0 0 0 0 0 0 0 0 0 127 0" result="hardAlpha"/>
<feOffset dy="4"/>
<feGaussianBlur stdDeviation="2"/>
<feComposite in2="hardAlpha" operator="out"/>
<feColorMatrix type="matrix" values="0 0 0 0 0 0 0 0 0 0 0 0 0 0 0 0 0 0 0.25 0"/>
<feBlend mode="normal" in2="BackgroundImageFix" result="effect1_dropShadow_168_2805"/>
<feBlend mode="normal" in="SourceGraphic" in2="effect1_dropShadow_168_2805" result="shape"/>
</filter>
<filter id="filter9_d_168_2805" x="42.4427" y="9.00005" width="13.7494" height="15.2689" filterUnits="userSpaceOnUse" color-interpolation-filters="sRGB">
<feFlood flood-opacity="0" result="BackgroundImageFix"/>
<feColorMatrix in="SourceAlpha" type="matrix" values="0 0 0 0 0 0 0 0 0 0 0 0 0 0 0 0 0 0 127 0" result="hardAlpha"/>
<feOffset dy="4"/>
<feGaussianBlur stdDeviation="2"/>
<feComposite in2="hardAlpha" operator="out"/>
<feColorMatrix type="matrix" values="0 0 0 0 0 0 0 0 0 0 0 0 0 0 0 0 0 0 0.25 0"/>
<feBlend mode="normal" in2="BackgroundImageFix" result="effect1_dropShadow_168_2805"/>
<feBlend mode="normal" in="SourceGraphic" in2="effect1_dropShadow_168_2805" result="shape"/>
</filter>
<filter id="filter10_d_168_2805" x="36.6332" y="9.00005" width="13.8315" height="15.2689" filterUnits="userSpaceOnUse" color-interpolation-filters="sRGB">
<feFlood flood-opacity="0" result="BackgroundImageFix"/>
<feColorMatrix in="SourceAlpha" type="matrix" values="0 0 0 0 0 0 0 0 0 0 0 0 0 0 0 0 0 0 127 0" result="hardAlpha"/>
<feOffset dy="4"/>
<feGaussianBlur stdDeviation="2"/>
<feComposite in2="hardAlpha" operator="out"/>
<feColorMatrix type="matrix" values="0 0 0 0 0 0 0 0 0 0 0 0 0 0 0 0 0 0 0.25 0"/>
<feBlend mode="normal" in2="BackgroundImageFix" result="effect1_dropShadow_168_2805"/>
<feBlend mode="normal" in="SourceGraphic" in2="effect1_dropShadow_168_2805" result="shape"/>
</filter>
<filter id="filter11_d_168_2805" x="30.228" y="9.00005" width="13.1231" height="15.2689" filterUnits="userSpaceOnUse" color-interpolation-filters="sRGB">
<feFlood flood-opacity="0" result="BackgroundImageFix"/>
<feColorMatrix in="SourceAlpha" type="matrix" values="0 0 0 0 0 0 0 0 0 0 0 0 0 0 0 0 0 0 127 0" result="hardAlpha"/>
<feOffset dy="4"/>
<feGaussianBlur stdDeviation="2"/>
<feComposite in2="hardAlpha" operator="out"/>
<feColorMatrix type="matrix" values="0 0 0 0 0 0 0 0 0 0 0 0 0 0 0 0 0 0 0.25 0"/>
<feBlend mode="normal" in2="BackgroundImageFix" result="effect1_dropShadow_168_2805"/>
<feBlend mode="normal" in="SourceGraphic" in2="effect1_dropShadow_168_2805" result="shape"/>
</filter>
<filter id="filter12_d_168_2805" x="23.7269" y="8.81524" width="13.2463" height="15.6385" filterUnits="userSpaceOnUse" color-interpolation-filters="sRGB">
<feFlood flood-opacity="0" result="BackgroundImageFix"/>
<feColorMatrix in="SourceAlpha" type="matrix" values="0 0 0 0 0 0 0 0 0 0 0 0 0 0 0 0 0 0 127 0" result="hardAlpha"/>
<feOffset dy="4"/>
<feGaussianBlur stdDeviation="2"/>
<feComposite in2="hardAlpha" operator="out"/>
<feColorMatrix type="matrix" values="0 0 0 0 0 0 0 0 0 0 0 0 0 0 0 0 0 0 0.25 0"/>
<feBlend mode="normal" in2="BackgroundImageFix" result="effect1_dropShadow_168_2805"/>
<feBlend mode="normal" in="SourceGraphic" in2="effect1_dropShadow_168_2805" result="shape"/>
</filter>
<filter id="filter13_d_168_2805" x="17.8315" y="8.81524" width="13.2463" height="15.6385" filterUnits="userSpaceOnUse" color-interpolation-filters="sRGB">
<feFlood flood-opacity="0" result="BackgroundImageFix"/>
<feColorMatrix in="SourceAlpha" type="matrix" values="0 0 0 0 0 0 0 0 0 0 0 0 0 0 0 0 0 0 127 0" result="hardAlpha"/>
<feOffset dy="4"/>
<feGaussianBlur stdDeviation="2"/>
<feComposite in2="hardAlpha" operator="out"/>
<feColorMatrix type="matrix" values="0 0 0 0 0 0 0 0 0 0 0 0 0 0 0 0 0 0 0.25 0"/>
<feBlend mode="normal" in2="BackgroundImageFix" result="effect1_dropShadow_168_2805"/>
<feBlend mode="normal" in="SourceGraphic" in2="effect1_dropShadow_168_2805" result="shape"/>
</filter>
<filter id="filter14_d_168_2805" x="10.0163" y="9.00005" width="15.6282" height="15.2689" filterUnits="userSpaceOnUse" color-interpolation-filters="sRGB">
<feFlood flood-opacity="0" result="BackgroundImageFix"/>
<feColorMatrix in="SourceAlpha" type="matrix" values="0 0 0 0 0 0 0 0 0 0 0 0 0 0 0 0 0 0 127 0" result="hardAlpha"/>
<feOffset dy="4"/>
<feGaussianBlur stdDeviation="2"/>
<feComposite in2="hardAlpha" operator="out"/>
<feColorMatrix type="matrix" values="0 0 0 0 0 0 0 0 0 0 0 0 0 0 0 0 0 0 0.25 0"/>
<feBlend mode="normal" in2="BackgroundImageFix" result="effect1_dropShadow_168_2805"/>
<feBlend mode="normal" in="SourceGraphic" in2="effect1_dropShadow_168_2805" result="shape"/>
</filter>
<filter id="filter15_d_168_2805" x="-3.05176e-05" y="9.00005" width="18.3078" height="15.2689" filterUnits="userSpaceOnUse" color-interpolation-filters="sRGB">
<feFlood flood-opacity="0" result="BackgroundImageFix"/>
<feColorMatrix in="SourceAlpha" type="matrix" values="0 0 0 0 0 0 0 0 0 0 0 0 0 0 0 0 0 0 127 0" result="hardAlpha"/>
<feOffset dy="4"/>
<feGaussianBlur stdDeviation="2"/>
<feComposite in2="hardAlpha" operator="out"/>
<feColorMatrix type="matrix" values="0 0 0 0 0 0 0 0 0 0 0 0 0 0 0 0 0 0 0.25 0"/>
<feBlend mode="normal" in2="BackgroundImageFix" result="effect1_dropShadow_168_2805"/>
<feBlend mode="normal" in="SourceGraphic" in2="effect1_dropShadow_168_2805" result="shape"/>
</filter>
</defs>
</svg>
